<svg width="640" height="387" xmlns="http://www.w3.org/2000/svg">
 <defs>
  <style type="text/css">
   <![CDATA[
    .fil3 {fill:none}
    .fil4 {fill:#330099}
    .fil7 {fill:#FF6600}
    .fil0 {fill:white}
    .fil6 {fill:#330099;fill-rule:nonzero}
    .fil8 {fill:#4D4D4D;fill-rule:nonzero}
    .fil5 {fill:#FF6600;fill-rule:nonzero}
    .fil11 {fill:white;fill-rule:nonzero}
    .fil10 {fill:white;fill-rule:nonzero}
    .fil1 {fill:#330099;fill-opacity:0.250980}
    .fil2 {fill:#FF6600;fill-opacity:0.250980}
    .fil9 {fill:white;fill-opacity:0.250980}
   ]]>
  </style>
  <clipPath id="id0">
   <path id="svg_1" d="m11559.984192,-2780.038395l12700,0l0,12700l-12700,0l0,-12700z"/>
  </clipPath>
  <clipPath id="id1">
   <path id="svg_2" d="m24259.984192,-2780.038395l12700,0l0,12700l-12700,0l0,-12700z"/>
  </clipPath>
  <clipPath id="id2">
   <path id="svg_3" d="m36959.984192,-2780.038395l12700,0l0,12700l-12700,0l0,-12700z"/>
  </clipPath>
 </defs>
 <g>
  <title>background</title>
  <rect fill="none" id="canvas_background" height="389" width="642" y="-1" x="-1"/>
 </g>
 <g>
  <title>Layer 1</title>
  <metadata transform="translate(-220.0030517578125,-40.000553131103516) translate(-920.0127563476562,-2740.037841796875) " id="CorelCorpID_0Corel-Layer"/>
  <g stroke="null" id="svg_127">
   <path stroke="null" id="svg_116" d="m322.032445,10.978268c77.974971,0 144.623968,48.353194 171.632059,116.682418l0,0c0.933459,2.115841 1.99138,4.916219 3.111531,8.463365c0.124461,0.497845 0.311153,0.99569 0.497845,1.431304l-0.062231,0c1.555766,5.102911 3.235992,11.512665 5.165142,19.229263c0,0 -3.796068,0.373384 -11.263743,1.057921c-1.369074,-8.02775 -2.924839,-14.748658 -4.605066,-20.287183c-23.834329,-67.769149 -88.491946,-116.371265 -164.475537,-116.371265c-76.979281,0 -142.321435,49.90896 -165.408996,119.171643l-10.641437,0c23.460945,-74.987901 93.408165,-129.377466 176.050433,-129.377466zm-165.408996,239.65013c23.087561,69.262684 88.429716,119.171643 165.408996,119.171643c75.983591,0 140.641208,-48.602117 164.475537,-116.371265l10.765898,0c-24.332174,73.494366 -93.532627,126.577088 -175.241435,126.577088c-82.642268,0 -152.589488,-54.389565 -176.050433,-129.377466l10.641437,0z" class="fil4"/>
   <path stroke="null" id="svg_117" d="m3.598346,232.332594c0,0 12.01051,13.815198 33.293383,13.815198c22.216332,0 34.91138,-15.433195 34.91138,-31.737618c0,-16.553346 -12.01051,-26.510245 -25.265633,-28.563856l22.527486,-28.190472l0,-11.201512l-53.331644,0c-6.596446,0 -8.525595,2.924839 -8.525595,9.396824l0,14.93535l16.242193,0l0,-5.97414c0,-1.929149 1.120151,-2.98707 3.049301,-2.98707l12.321663,0c5.662987,0 8.712287,-0.435614 8.712287,-0.435614l0,0.248922c0,0 -3.235992,2.489225 -6.534215,7.467675l-16.553346,22.216332l3.609376,9.02344l6.907599,0c10.454745,0 18.482495,5.662987 18.482495,14.313043c0,8.587826 -7.03206,14.686427 -16.740038,14.686427c-14.499735,0 -24.021021,-10.516975 -24.021021,-10.516975l-9.085671,13.504045z" class="fil5"/>
   <path stroke="null" d="m119.285075,246.147793c19.353724,0 32.173232,-14.624196 32.173232,-32.857769c0,-17.549036 -12.01051,-32.546616 -31.302003,-32.546616c-7.094291,0 -14.93535,2.862609 -18.233573,7.156522l-0.311153,0c2.364764,-13.815198 10.641437,-26.634707 25.95017,-26.634707c7.467675,0 13.815198,3.049301 13.815198,3.049301l5.289603,-15.370964c0,0 -7.778828,-4.107221 -20.162722,-4.107221c-30.368544,0 -45.179432,29.684007 -45.179432,55.758638c0,28.99947 17.549036,45.552816 37.96068,45.552816zm-19.291493,-40.138752c0,-5.97414 7.280983,-10.641437 15.99327,-10.641437c11.761588,0 17.98465,8.152212 17.98465,17.922419c0,9.272363 -5.538525,16.615576 -14.810888,16.615576c-10.205822,0 -19.167032,-11.637127 -19.167032,-23.896559z" class="fil5" id="svg_118"/>
   <path stroke="null" d="m197.322276,246.147793c26.759168,0 35.471455,-22.651947 35.471455,-50.780189c0,-28.190472 -8.712287,-50.531266 -35.471455,-50.531266c-26.759168,0 -35.471455,22.340794 -35.471455,50.531266c0,28.128242 8.712287,50.780189 35.471455,50.780189zm0,-16.242193c-13.379584,0 -17.237883,-15.246503 -17.237883,-34.537996c0,-19.042571 3.858299,-34.102381 17.237883,-34.102381c13.379584,0 17.237883,15.059811 17.237883,34.102381c0,19.291493 -3.858299,34.537996 -17.237883,34.537996z" class="fil5" id="svg_119"/>
   <path stroke="null" d="m243.995244,230.963521c0,0 12.01051,15.184272 33.666767,15.184272c20.598336,0 32.608847,-13.255123 32.608847,-28.812779c0,-32.173232 -46.112892,-28.875009 -46.112892,-45.615047c0,-6.223062 6.098601,-10.454745 14.375274,-10.454745c6.471985,0 12.94397,3.049301 12.94397,7.592136l0,4.418374l16.304423,0l0,-9.147902c0,-13.93966 -17.673497,-19.291493 -29.123932,-19.291493c-18.918109,0 -32.733308,11.699357 -32.733308,27.568166c0,30.555236 46.112892,29.186162 46.112892,45.863969c0,7.592136 -6.596446,11.637127 -14.064121,11.637127c-13.690737,0 -23.772098,-11.637127 -23.772098,-11.637127l-10.205822,12.695047z" class="fil6" id="svg_120"/>
   <path stroke="null" d="m320.476679,209.307264c0,21.656257 17.113421,36.840529 38.520756,36.840529c21.594026,0 38.707448,-15.184272 38.707448,-36.840529c0,-21.531796 -17.113421,-36.90276 -38.707448,-36.90276c-21.407334,0 -38.520756,15.370964 -38.520756,36.90276zm17.673497,0c0,-13.0062 9.521285,-21.96741 20.847259,-21.96741c11.512665,0 21.033951,8.96121 21.033951,21.96741c0,13.130661 -9.521285,21.96741 -21.033951,21.96741c-11.325973,0 -20.847259,-8.836748 -20.847259,-21.96741z" class="fil6" id="svg_121"/>
   <path stroke="null" d="m406.541631,209.307264c0,20.411644 14.873119,36.840529 38.085141,36.840529c19.229263,0 29.684007,-12.695047 29.684007,-12.695047l-7.280983,-12.134972c0,0 -8.836748,9.521285 -20.909489,9.521285c-11.263743,0 -21.905179,-7.343214 -21.905179,-21.656257c0,-12.695047 8.650057,-21.96741 20.847259,-21.96741c4.293913,0 10.081361,1.617996 10.081361,5.538525l0,3.858299l15.433195,0l0,-8.276673c0,-12.197202 -16.428885,-15.93104 -25.514555,-15.93104c-24.207712,0 -38.520756,16.98896 -38.520756,36.90276z" class="fil6" id="svg_122"/>
   <path stroke="null" d="m489.24613,162.634296l15.184272,0l0,-16.179962l-15.184272,0l0,16.179962zm-0.871229,72.498676c0,6.596446 2.800378,9.396824 9.272363,9.396824l16.740038,0l0,-14.810888l-5.538525,0c-1.929149,0 -3.049301,-1.057921 -3.049301,-3.049301l0,-43.188052c0,-6.471985 -2.738147,-9.396824 -9.272363,-9.396824l-16.677807,0l0,14.93535l5.538525,0c1.929149,0 2.98707,0.933459 2.98707,3.049301l0,43.063591z" class="fil6" id="svg_123"/>
   <path stroke="null" d="m522.22836,224.242613c0,14.064121 11.450435,21.905179 24.021021,21.905179c15.868809,0 21.282873,-12.383894 21.282873,-12.383894l0.248922,0c0,0 -0.124461,1.244612 -0.124461,2.98707c0,4.169452 2.489225,7.778828 8.96121,7.778828l15.744348,0l0,-14.810888l-5.476295,0c-1.99138,0 -3.049301,-1.057921 -3.049301,-3.049301l0,-26.199092c0,-15.744348 -6.907599,-28.066011 -30.368544,-28.066011c-7.343214,0 -25.825709,1.431304 -25.825709,14.499735l0,7.467675l16.242193,0l0,-3.733837c0,-3.858299 6.223062,-4.667297 9.396824,-4.667297c9.02344,0 13.0062,3.733837 13.0062,13.815198l0,0.560076l-2.240302,0c-11.450435,0 -41.818979,1.804688 -41.818979,23.896559zm17.673497,-0.871229c0,-9.770208 14.499735,-11.01482 23.647637,-11.01482l2.98707,0l0,1.617996c0,8.587826 -6.596446,18.544726 -15.99327,18.544726c-7.156522,0 -10.641437,-4.418374 -10.641437,-9.147902z" class="fil6" id="svg_124"/>
   <path stroke="null" d="m606.053009,235.132972c0,6.596446 2.738147,9.396824 9.396824,9.396824l16.553346,0l0,-14.810888l-5.351834,0c-1.929149,0 -3.049301,-1.057921 -3.049301,-3.049301l0,-70.818449c0,-6.471985 -2.924839,-9.396824 -9.396824,-9.396824l-16.740038,0l0,14.93535l5.538525,0c1.929149,0 3.049301,0.933459 3.049301,3.049301l0,70.693988z" class="fil6" id="svg_125"/>
   <circle stroke="null" id="svg_126" r="12.508353" cy="155.291083" cx="496.900496" class="fil7"/>
  </g>
 </g>
</svg>