<?xml version="1.0" encoding="UTF-8"?>
<!DOCTYPE svg PUBLIC "-//W3C//DTD SVG 1.1//EN" "http://www.w3.org/Graphics/SVG/1.1/DTD/svg11.dtd">
<!-- Creator: CorelDRAW X7 -->
<svg xmlns="http://www.w3.org/2000/svg" xml:space="preserve" width="800mm" height="425mm" version="1.1" style="shape-rendering:geometricPrecision; text-rendering:geometricPrecision; image-rendering:optimizeQuality; fill-rule:evenodd; clip-rule:evenodd"
viewBox="0 0 16256 9144"
 xmlns:xlink="http://www.w3.org/1999/xlink">
 <defs>
  <style type="text/css">
   <![CDATA[
    .fil33 {fill:#FEFEFE}
    .fil2 {fill:#000518}
    .fil3 {fill:#01010E}
    .fil10 {fill:#0F162F}
    .fil27 {fill:#111C38}
    .fil26 {fill:#2F365B}
    .fil20 {fill:#33038C}
    .fil28 {fill:#36058B}
    .fil24 {fill:#3A7E80}
    .fil25 {fill:#50A5A5}
    .fil21 {fill:#62A8BA}
    .fil29 {fill:#66297C}
    .fil22 {fill:#80B8C8}
    .fil12 {fill:#905D3F}
    .fil16 {fill:#963F05}
    .fil18 {fill:#963F05}
    .fil31 {fill:#A52A34}
    .fil30 {fill:#A5CAE4}
    .fil8 {fill:#B13438}
    .fil23 {fill:#B8B8C1}
    .fil11 {fill:#BD855D}
    .fil7 {fill:#C13D3D}
    .fil13 {fill:#D49C80}
    .fil14 {fill:#D4E9F4}
    .fil6 {fill:#D84F4F}
    .fil32 {fill:#DD7272}
    .fil9 {fill:#E9745D}
    .fil15 {fill:#EBF6FB}
    .fil4 {fill:#EF8770}
    .fil19 {fill:#EF9A9A}
    .fil5 {fill:#F4AC85}
    .fil17 {fill:#FF6600}
    .fil1 {fill:white}
    .fil35 {fill:#FEFEFE;fill-rule:nonzero}
    .fil34 {fill:#FF6600;fill-rule:nonzero}
    .fil0 {fill:url(#id0)}
   ]]>
  </style>
  <linearGradient id="id0" gradientUnits="userSpaceOnUse" x1="6698.29" y1="5112.92" x2="9557.71" y2="3777.25">
   <stop offset="0" style="stop-opacity:1; stop-color:#2F008D"/>
   <stop offset="1" style="stop-opacity:1; stop-color:#66297C"/>
  </linearGradient>
 </defs>
 <g id="Camada_x0020_1">
  <metadata id="CorelCorpID_0Corel-Layer"/>
  <g id="_2564128245280">
   <path class="fil0" d="M10219 5430c-209,0 -380,171 -380,380 0,381 -313,693 -694,693l-207 0 -1611 0 -810 0c-496,0 -901,-405 -901,-901 0,-495 405,-901 901,-901 99,0 181,-81 181,-181 0,-99 -82,-180 -181,-180l-471 0c-242,0 -440,-198 -440,-440 0,-241 197,-439 439,-439 0,0 428,0 429,0 209,0 380,-171 380,-380 0,-382 312,-694 693,-694 677,0 1523,0 2200,0 496,0 901,405 901,901 0,495 -405,901 -901,901 -99,0 -181,81 -181,181 0,99 82,180 181,180l472 0c575,0 575,880 0,880z"/>
   <path class="fil1" d="M7492 3111c9,-8 2,-23 -10,-22 -3,0 -5,2 -7,3 -7,6 -13,12 -19,18 -4,3 -5,9 -3,14 4,8 14,10 20,4 6,-6 12,-11 19,-17zm1143 2891l0 0c-12,1 -17,16 -8,23 3,2 5,3 8,3l11 0 13 -1 2 0c12,0 16,-17 6,-23 -2,-2 -5,-2 -7,-2l-15 0 -10 0zm99 -5l0 0c-5,1 -9,5 -10,10 -2,8 5,16 13,15l12 -1 14 -2c11,-1 15,-16 5,-22 -2,-2 -6,-3 -9,-3l-13 2 -12 1zm99 -14l0 0c-4,0 -7,3 -9,7 -4,9 4,19 14,17l8 -1 12 -3 5 -1c12,-3 14,-19 2,-24 -2,-1 -5,-1 -7,-1l-6 2 -11 2 -8 2zm97 -24l0 0c-13,4 -11,22 2,24 2,0 4,0 6,0l10 -4 11 -3 3 -1c4,-2 7,-5 8,-9 3,-10 -7,-18 -16,-15l-3 1 -11 3 -10 4zm94 -35l0 0c-5,2 -8,6 -8,11 0,10 9,16 18,12l8 -3 10 -5 5 -2c12,-6 9,-23 -4,-24 -2,0 -5,0 -7,1l-4 2 -10 5 -8 3zm88 -44l0 0c-11,6 -6,24 8,23 2,0 4,-1 5,-2l4 -2 9 -5 9 -6c11,-7 6,-24 -7,-23 -3,0 -4,1 -6,2l-9 5 -9 5 -4 3zm83 -55l0 0c-11,8 -2,25 11,22 2,-1 3,-1 5,-2l5 -5 8 -6 7 -5c9,-7 5,-21 -7,-23 -3,0 -6,1 -9,3l-6 5 -8 6 -6 5zm76 -65l0 0c-4,4 -5,10 -2,15 4,7 14,9 20,3l5 -5 7 -7 6 -6c2,-3 4,-7 3,-11 -1,-10 -14,-14 -22,-7l-5 6 -7 7 -5 5zm67 -74l0 0c-3,4 -4,9 -2,13 4,9 16,11 22,3l3 -4 7 -8 5 -8c7,-9 1,-20 -10,-20 -4,0 -7,2 -10,5l-5 7 -6 8 -4 4zm58 -81l0 0c-6,10 2,21 13,19 3,0 6,-2 8,-5l2 -4 5 -8 6 -10c3,-5 2,-11 -1,-15 -6,-6 -16,-6 -21,2l-5 10 -5 8 -2 3zm47 -87l0 0c-2,5 -1,10 2,14 6,6 17,5 21,-3l5 -11 4 -9 2 -4c5,-12 -9,-23 -20,-14 -1,1 -3,3 -3,4l-2 4 -4 9 -5 10zm38 -92l0 0c-4,12 10,22 20,14 2,-2 3,-4 4,-6l3 -9 3 -10 2 -5c1,-5 0,-9 -3,-13 -6,-7 -18,-4 -21,5l-2 6 -3 9 -3 9zm27 -96l0 0c-2,13 13,21 22,11 1,-1 2,-3 3,-6l2 -7 2 -10 1 -8c3,-12 -13,-20 -22,-10 -1,2 -2,3 -3,6l-1 7 -2 10 -2 7zm17 -98l0 0c0,5 2,10 6,12 8,5 18,0 19,-9l1 -7 1 -10 1 -9c1,-12 -14,-18 -22,-9 -2,2 -3,4 -3,7l-1 9 -1 9 -1 7zm7 -100l0 0c0,14 19,18 24,5 1,-1 1,-3 1,-4l0 -6 1 -11 0 -9c-1,-11 -13,-16 -21,-10 -3,3 -5,6 -5,10l0 9 0 10 0 6zm-3 -99l0 0c1,11 16,15 23,6 2,-3 2,-6 2,-9l0 -6 -1 -10 -1 -9c-1,-3 -2,-5 -3,-7 -9,-9 -24,-3 -22,10l1 8 0 10 1 7zm-13 -99l0 0c1,4 3,7 7,9 9,4 20,-4 18,-14l-2 -7 -2 -10 -1 -8c-1,-6 -6,-10 -11,-10 -9,-1 -16,7 -14,15l2 8 2 10 1 7zm-23 -97l0 0c2,5 6,8 12,9 9,0 15,-8 12,-17l-2 -8 -3 -10 -2 -6c-4,-13 -22,-11 -24,2 -1,2 -1,4 0,6l2 5 3 10 2 9zm-32 -95l0 0c1,4 5,7 9,8 10,2 18,-8 14,-17l-4 -11 -4 -10 -1 -3c-5,-10 -18,-10 -23,-1 -2,4 -2,7 -1,11l2 3 4 9 4 11zm-42 -91l0 0c7,12 24,8 24,-6 0,-2 0,-4 -1,-5l-3 -5 -5 -9 -4 -9c-7,-11 -24,-7 -24,6 0,3 1,4 2,6l4 9 5 9 2 4zm-50 -86l0 0c3,4 7,6 12,6 9,-1 14,-12 9,-20l-6 -9 -6 -9 -2 -3c-3,-4 -8,-6 -13,-5 -9,2 -13,12 -8,20l2 3 6 9 6 8zm-59 -80l0 0c9,10 25,2 23,-11 -1,-2 -2,-4 -3,-5l-4 -6 -7 -8 -5 -6c-8,-9 -21,-4 -22,7 -1,4 0,7 3,9l4 6 7 8 4 6zm-66 -75l0 0c9,9 24,1 21,-12 0,-2 -2,-4 -3,-6l-3 -3 -8 -8 -7 -7c-10,-8 -24,0 -21,12 0,3 1,5 3,7l7 6 8 8 3 3zm-74 -67l0 0c9,7 22,0 21,-11 0,-4 -2,-6 -5,-9l-3 -3 -9 -7 -7 -6c-4,-3 -9,-3 -13,-1 -9,3 -11,15 -3,21l7 5 9 8 3 3zm-79 -60l0 0c4,3 10,3 14,-1 7,-5 7,-15 0,-20l-7 -5 -10 -6 -5 -3c-10,-7 -23,4 -18,16 1,2 3,4 5,5l4 3 10 6 7 5zm-86 -52l0 0c6,3 13,1 17,-4 4,-6 2,-15 -4,-18l-3 -2 -11 -6 -9 -5c-11,-5 -22,6 -17,17 1,3 3,4 5,6l10 5 10 5 2 2zm-89 -45l0 0c10,5 20,-5 17,-15 -1,-4 -3,-6 -7,-8l-12 -5 -11 -5c-12,-4 -22,8 -16,18 1,3 3,4 6,5l11 5 12 5zm-93 -36l0 0c11,4 21,-9 15,-19 -2,-2 -4,-4 -7,-5l-2 -1c-7,-2 -15,-5 -22,-7 -11,-4 -20,7 -15,17 1,4 4,6 7,7 7,2 15,5 22,7l2 1zm-96 -30l0 0c5,1 10,0 13,-4 6,-7 3,-18 -6,-20 -8,-3 -16,-5 -24,-7 -4,-1 -7,-1 -10,1 -10,5 -8,20 3,23 8,2 16,5 24,7zm-97 -26l0 0c13,3 21,-12 11,-21 -1,-2 -3,-3 -5,-3 -8,-2 -17,-4 -25,-6 -11,-3 -20,10 -13,20 2,2 4,4 7,5 8,1 17,4 25,5zm-98 -21l0 0c12,2 20,-12 12,-21 -2,-2 -5,-3 -7,-4 -9,-2 -17,-3 -25,-5 -13,-2 -21,14 -11,22 2,2 4,3 6,3 8,2 16,3 25,5zm-99 -18l0 0c12,2 19,-13 10,-22 -2,-1 -4,-3 -6,-3 -9,-1 -17,-3 -25,-4 -14,-2 -21,16 -9,23 2,1 3,2 5,2 8,1 16,3 25,4zm-100 -15l0 0c11,1 19,-11 12,-20 -2,-3 -5,-4 -9,-5 -8,-1 -16,-2 -25,-3 -12,-2 -19,14 -9,22 2,2 4,2 6,3 8,1 17,2 25,3zm-100 -12l0 0c6,0 11,-3 13,-8 3,-8 -2,-16 -10,-17 -9,-1 -17,-2 -25,-3 -13,-1 -19,14 -10,22 2,2 4,3 7,3 8,1 17,2 25,3zm-100 -10l0 0c12,1 18,-14 9,-22 -2,-2 -4,-3 -7,-3 -8,-1 -17,-2 -25,-2 -6,-1 -11,2 -13,7 -3,8 2,17 11,18 8,1 16,1 25,2zm-101 -9l0 0c13,1 19,-16 8,-23 -1,-1 -3,-2 -5,-2 -9,-1 -17,-2 -25,-3 -5,-1 -10,2 -12,5 -6,8 -1,19 9,20 8,1 16,2 25,3zm-101 -13l0 0c11,1 18,-10 13,-19 -2,-3 -5,-6 -9,-6 -8,-1 -17,-3 -25,-4 -4,-1 -8,0 -11,3 -7,8 -3,20 7,22 8,1 17,2 25,4zm-100 -19l0 0c12,3 20,-11 12,-20 -1,-3 -4,-4 -7,-5 -8,-1 -16,-3 -24,-5 -11,-3 -19,9 -14,19 2,3 5,5 8,5 8,2 17,4 25,6zm-99 -25l0 0c12,3 21,-11 14,-20 -2,-2 -4,-4 -7,-4 -8,-3 -16,-5 -23,-8 -12,-4 -22,10 -14,20 1,2 3,3 6,4 8,3 16,5 24,8zm-96 -33l0 0c4,1 10,0 13,-3 7,-7 4,-18 -4,-21 -8,-3 -15,-6 -23,-9 -12,-6 -23,9 -14,20 1,1 2,2 4,3 8,3 16,6 24,10zm-93 -44l0 0c3,2 7,2 11,1 9,-5 10,-18 1,-23 -8,-4 -15,-8 -22,-12 -3,-2 -7,-2 -11,-1 -10,4 -11,17 -2,23 8,4 15,8 23,12zm-87 -55l0 0c10,8 23,-2 19,-14 0,-2 -2,-4 -4,-6 -6,-5 -13,-10 -19,-15 -9,-7 -22,0 -21,11 0,3 2,6 5,8 6,6 13,11 20,16zm-77 -69l0 0c9,9 25,2 22,-11 -1,-2 -2,-4 -3,-6 -6,-6 -11,-12 -16,-19 -4,-4 -9,-5 -15,-3 -7,3 -10,13 -5,19 6,7 11,14 17,20zm-61 -84l0 0c3,4 8,7 13,6 9,-1 14,-10 10,-18 -4,-7 -8,-15 -12,-22 -2,-5 -8,-8 -14,-7 -8,2 -12,10 -8,18 3,8 7,15 11,23zm-38 -97l0 0c1,4 4,7 8,9 10,4 19,-5 17,-15 -2,-8 -4,-16 -6,-24 -2,-13 -20,-14 -24,-1 -1,2 -1,4 0,6 1,8 3,17 5,25zm-12 -103l0 0c0,13 17,18 24,6 1,-2 2,-4 2,-6 0,-8 0,-16 1,-24 1,-13 -16,-19 -23,-8 -1,2 -2,4 -2,6 -1,8 -1,17 -2,26zm17 -103l0 0c-1,3 -1,5 0,8 5,11 20,11 24,-1 2,-7 5,-16 8,-23 2,-5 1,-10 -3,-14 -7,-6 -17,-3 -20,5 -4,8 -6,17 -9,25zm42 -95l0 0c-3,5 -2,10 1,14 6,7 17,6 21,-1 4,-7 8,-14 13,-21 3,-5 2,-11 -1,-15 -6,-7 -16,-6 -21,1 -4,7 -9,15 -13,22zm59 -84l0 0c-7,8 0,21 11,20 3,0 6,-2 8,-4 6,-7 11,-13 16,-19 9,-10 -1,-25 -13,-21 -2,1 -4,2 -5,4 -6,6 -12,13 -17,20z"/>
   <g>
    <path class="fil2" d="M7610 4158c3,-3 8,-4 11,-2 4,2 5,7 3,11 -1,1 -318,494 -68,782 3,3 3,8 -1,11 -3,3 -8,3 -11,-1 -258,-296 65,-799 66,-801z"/>
    <path class="fil2" d="M8536 4090c-3,-4 -2,-9 2,-11 4,-3 9,-2 11,2 1,1 182,282 -9,498 -3,4 -8,4 -12,1 -3,-3 -3,-8 0,-11 183,-207 8,-478 8,-479z"/>
    <path class="fil2" d="M7662 3825l-134 147c0,0 64,114 58,262 -7,149 -508,972 418,968 925,-5 410,-482 410,-482 0,0 305,-99 151,-540 -154,-442 -903,-355 -903,-355z"/>
    <path class="fil3" d="M8422 4729c-5,-6 -8,-9 -8,-9 0,0 11,-3 28,-12 26,-30 53,-64 79,-105 126,-196 -8,-465 -8,-465l-72 -22c0,0 -142,-50 -180,-63 -38,-13 -480,15 -605,250 -125,236 14,577 14,577 0,0 521,-17 550,-19 23,-1 108,-35 202,-132z"/>
    <path class="fil4" d="M8671 4857c149,65 168,201 187,352 18,134 23,336 -12,644 -36,307 -598,-406 -598,-406l423 -590z"/>
    <path class="fil5" d="M7797 4853l-144 -74c0,0 -152,38 -230,136 -78,98 -315,936 -324,1038 -8,103 61,493 188,493 127,0 190,-853 190,-853l104 -320 216 -420z"/>
    <path class="fil4" d="M7797 4853l-144 -74c0,0 -49,12 -105,41 18,9 33,32 31,83 -4,134 -208,644 -253,786 -44,143 -80,228 -80,228l-93 -195c-8,31 -16,61 -23,88 35,187 78,443 84,590 22,29 46,46 73,46 127,0 190,-853 190,-853l104 -320 216 -420z"/>
    <path class="fil6" d="M8180 4669c0,0 383,136 491,188 0,0 -21,22 -44,139 -23,118 0,290 -24,459 -18,122 -101,741 -145,1076l-945 -77c-1,-15 -1,-32 -2,-53 77,61 152,63 106,-113 -80,-308 -65,-842 -38,-1003 27,-160 66,-329 29,-492 25,-23 572,-124 572,-124z"/>
    <path class="fil7" d="M8431 4761c96,36 194,74 240,96 0,0 -21,22 -44,139 -23,118 0,290 -24,459 -4,25 -10,69 -18,127 -213,33 -844,106 -995,92 -11,-1 -22,-2 -33,-5 0,-167 10,-312 22,-384 1,-4 1,-8 2,-12 53,158 726,246 726,246 0,0 111,-247 82,-338 -29,-92 -162,-89 -162,-89l3 -82c0,0 134,-181 166,-236 4,-7 17,-11 35,-13z"/>
    <path class="fil8" d="M8486 4782l8 3c-17,68 -40,149 -72,196 -29,43 -62,83 -111,111 -49,28 -112,45 -201,43 -78,-2 -140,-31 -188,-71 -63,-53 -102,-126 -119,-187 -25,-86 -48,-114 -56,-122l10 -2c11,13 32,46 54,121 17,60 55,132 116,183 47,40 108,67 183,69 87,3 149,-14 197,-41 47,-28 80,-66 108,-108 31,-47 54,-127 71,-195zm157 62l0 0c3,1 5,2 7,3 -18,33 -44,102 -68,245 -29,172 4,250 29,282 0,4 0,8 -1,12 -27,-30 -67,-109 -36,-295 23,-141 50,-212 69,-247zm-1071 489l0 0c1,-6 2,-11 2,-16 22,-42 104,-229 57,-533 3,-1 5,-2 8,-3 54,349 -60,545 -62,550 -1,0 -1,0 -1,1 -1,1 -2,1 -4,1z"/>
    <path class="fil4" d="M8150 4259l3 0c83,-1 152,66 153,149l2 307c55,21 122,45 184,69 -98,212 -213,352 -398,312 -254,-55 -245,-268 -322,-346 72,-16 157,-33 230,-47l-2 -291c0,-83 67,-152 150,-153z"/>
    <path class="fil9" d="M8296 4357c6,16 10,33 10,51l2 307c55,21 122,45 184,69 -72,156 -154,273 -265,308 177,-120 123,-268 85,-284 -38,-15 -339,-100 -339,-100 10,-1 20,-3 29,-5l-2 -291c0,-47 21,-90 55,-118 80,0 160,24 241,63z"/>
    <path class="fil9" d="M8492 3968c3,0 6,0 9,0l0 0 0 0c54,4 100,45 108,101 10,64 -34,124 -99,134 -65,10 -125,-34 -135,-99 -6,-37 7,-73 31,-99 2,35 13,77 58,76l-10 -68c-5,-27 19,-43 38,-45z"/>
    <path class="fil9" d="M7647 4101c-3,1 -6,2 -8,3l0 0 0 0c-51,18 -85,69 -79,125 8,65 66,111 131,104 65,-7 112,-66 104,-131 -4,-38 -25,-69 -55,-87 7,34 7,77 -36,88l-8 -68c-3,-28 -30,-37 -49,-34z"/>
    <path class="fil5" d="M8012 3449c221,-30 426,127 455,348l49 365c29,221 -127,425 -348,455 -221,29 -426,-127 -455,-348l-49 -365c-29,-221 128,-426 348,-455z"/>
    <path class="fil4" d="M8012 3449c210,-28 405,111 449,314 -2,20 -8,39 -18,60l-187 -11c0,0 -124,235 -377,292 -68,16 -89,84 -75,149 34,159 170,386 505,317 -42,24 -90,40 -141,47 -221,29 -426,-127 -455,-348l-49 -365c-29,-221 128,-426 348,-455z"/>
    <path class="fil9" d="M7939 4253c29,-4 56,16 61,45 4,29 -16,56 -45,61 -29,4 -56,-16 -61,-45 -4,-29 16,-56 45,-61z"/>
    <path class="fil9" d="M8375 4184c29,-4 57,16 61,45 4,29 -15,56 -45,61 -29,4 -56,-16 -60,-45 -5,-29 15,-56 44,-61z"/>
    <path class="fil3" d="M7877 4042c-9,-1 -16,5 -17,13 -1,8 5,16 13,17 13,2 30,1 43,-1 30,-5 57,-19 77,-42 5,-7 4,-16 -2,-22 -7,-5 -17,-4 -22,2 -22,27 -59,36 -92,33z"/>
    <path class="fil2" d="M8548 4940c0,0 15,-2 19,10 3,12 -48,77 -51,79 -4,2 -105,-10 -105,-10 0,0 -6,-5 -4,-9 1,-4 5,-8 5,-8l136 -62z"/>
    <path class="fil3" d="M8384 3924c-34,-6 -71,-1 -95,24 -6,6 -16,6 -22,1 -6,-6 -6,-16 0,-22 21,-22 49,-33 79,-35 14,-2 30,-1 44,2 8,2 13,10 12,18 -2,8 -10,13 -18,12z"/>
    <path class="fil2" d="M7765 4086c0,0 3,27 7,52 3,25 -45,92 -64,94l-12 -91c0,0 -14,-40 -65,-33 -182,-161 -200,-452 -51,-624 149,-172 510,-230 576,-217 66,13 145,111 145,111 0,0 47,-55 101,-37 53,19 261,311 272,389 10,79 -121,255 -121,255 -52,7 -54,50 -54,50l7 56c-19,3 -33,-22 -36,-46 -4,-25 -7,-52 -7,-52 -168,-50 -259,-255 -259,-255 0,0 -175,352 -439,348z"/>
    <path class="fil10" d="M7480 3766c0,-74 17,-148 52,-213 165,128 431,214 652,-276 15,7 29,17 42,27 -85,249 -305,684 -746,462z"/>
    <path class="fil3" d="M7765 4086c0,0 3,27 7,52 3,25 -45,92 -64,94l-12 -91c0,0 -14,-40 -65,-33 -71,-63 -118,-146 -138,-234 0,0 312,217 696,-186 0,0 175,274 432,192 -32,57 -68,105 -68,105 -52,7 -54,50 -54,50l7 56c-19,3 -33,-22 -36,-46 -4,-25 -7,-52 -7,-52 -168,-50 -259,-255 -259,-255 0,0 -175,352 -439,348z"/>
    <path class="fil4" d="M8538 4628l27 7c0,0 15,-137 15,-150 0,-14 -7,-33 -17,-55 -10,-23 -47,-107 -49,-110 -2,-3 -26,18 -16,55 11,37 30,88 29,98 0,11 -24,106 -24,106l35 49z"/>
    <path class="fil5" d="M8565 4629c0,-12 -4,-35 -31,-51 -26,-16 -88,-65 -102,-71 -13,-6 -28,-3 -44,7 -16,10 -65,44 -76,55 -10,11 -36,78 -40,85 -3,7 23,14 44,-2 0,0 -11,22 -14,29 -4,8 -8,65 -9,76 0,12 31,6 42,-21 0,0 -1,19 -1,25 0,6 18,4 18,4 0,0 21,114 25,128 5,14 186,664 186,664l261 -16c0,0 -285,-638 -287,-647 -16,-80 28,-197 28,-265z"/>
    <path class="fil4" d="M8352 4765l1 6 0 2 0 0 0 0 0 1 0 0 0 0 1 1 0 0 0 0 0 1 0 0 0 0 0 1 0 1c6,29 20,104 23,115 4,11 104,370 156,556 56,-23 100,-49 100,-49 0,0 -203,-471 -207,-490 -5,-18 6,-33 2,-38 -4,-5 -19,-12 -23,-25 -4,-14 -14,-61 -8,-80 5,-15 21,-13 27,-11 8,2 15,4 20,5 10,1 9,-5 9,-5 3,-21 23,-51 23,-51 -11,-6 -28,-35 -28,-35 -11,-4 -20,-11 -29,-5 -9,7 -34,32 -34,35 0,2 -2,27 -7,44 -4,16 -26,21 -26,21z"/>
    <g>
     <path class="fil2" d="M7183 6560l1894 0c29,0 53,-25 53,-57l0 0c0,-31 -24,-57 -53,-57l-1894 0c-29,0 -53,26 -53,57l0 0c0,32 24,57 53,57z"/>
     <path class="fil2" d="M9112 5353l-624 0 -716 0 -624 0c-29,0 -49,23 -45,53l150 996c5,30 32,53 61,53l292 0 1048 0 292 0c29,0 56,-23 61,-53l150 -996c4,-30 -16,-53 -45,-53z"/>
     <path class="fil10" d="M9068 5400l-596 0 -684 0 -596 0c-28,0 -47,23 -43,50l143 953c4,28 31,50 59,50l278 0 1002 0 278 0c28,0 55,-22 59,-50l143 -953c4,-27 -15,-50 -43,-50z"/>
     <path class="fil2" d="M7255 6159l37 244c4,28 31,50 59,50l278 0 1002 0 278 0c28,0 55,-22 59,-50l143 -953c4,-22 -8,-41 -28,-48 -214,371 -742,977 -1828,757z"/>
     <path class="fil2" d="M8130 6200c115,0 209,-78 209,-174 0,-96 -94,-174 -209,-174 -115,0 -209,78 -209,174 0,96 94,174 209,174z"/>
    </g>
    <path class="fil3" d="M8341 4033c-18,3 -31,21 -28,39l7 44c3,18 20,31 39,28 18,-3 31,-21 28,-39l-7 -44c-3,-18 -20,-31 -39,-28z"/>
    <path class="fil3" d="M7936 4095c-19,3 -32,20 -29,39l7 43c3,19 21,31 39,28 18,-3 31,-20 28,-38l-7 -44c-3,-18 -20,-31 -38,-28z"/>
    <path class="fil4" d="M8306 4334c5,4 6,12 2,17 -4,5 -12,5 -17,1 0,0 -40,-36 -113,31 -4,4 -12,3 -16,-2 -5,-5 -5,-12 -1,-17 87,-80 144,-30 145,-30z"/>
    <path class="fil10" d="M8558 4942c0,0 5,1 6,7 1,7 -40,60 -153,64 0,0 -3,-1 -3,-3 0,-2 1,-4 1,-4l0 -2c0,0 -4,3 -4,7 0,3 16,73 20,90 3,18 37,14 66,7 30,-7 99,-31 117,-69 0,0 2,-9 -1,-18 -2,-8 -37,-73 -39,-77 -2,-3 -8,-5 -12,-5l2 3z"/>
    <path class="fil2" d="M8465 5006c-16,4 -34,6 -54,7 0,0 -3,-1 -3,-3 0,-2 1,-4 1,-4l0 -2c0,0 -4,3 -4,7 0,3 16,73 20,90 3,18 37,14 66,7 5,-1 10,-2 15,-4l-41 -98 0 0z"/>
   </g>
   <g>
    <path class="fil2" d="M6563 6614l3130 0c39,0 71,32 71,72 0,39 -32,71 -71,71l-3130 0c-39,0 -71,-32 -71,-71 0,-40 32,-72 71,-72z"/>
    <path class="fil11" d="M6411 6503l3434 0c50,0 91,41 91,91l0 0c0,51 -41,92 -91,92l-3434 0c-50,0 -91,-41 -91,-92l0 0c0,-50 41,-91 91,-91z"/>
    <polygon class="fil12" points="8492,6503 8682,6503 8682,6686 8492,6686 "/>
    <polygon class="fil12" points="8781,6503 8879,6503 8879,6686 8781,6686 "/>
    <polygon class="fil12" points="8983,6503 9032,6503 9032,6686 8983,6686 "/>
    <polygon class="fil12" points="9201,6503 9413,6503 9413,6686 9201,6686 "/>
    <polygon class="fil12" points="9573,6503 9679,6503 9679,6686 9573,6686 "/>
    <path class="fil13" d="M6418 6533l1669 0c30,0 55,24 55,54l0 0c0,30 -25,54 -55,54l-1669 0c-29,0 -54,-24 -54,-54l0 0c0,-30 25,-54 54,-54z"/>
   </g>
   <g>
    <polygon class="fil14" points="7525,2809 7564,3033 8070,2626 7542,2756 "/>
    <path class="fil15" d="M7564 3033l195 -157c3,-18 9,-40 9,-40l-164 44 -40 153z"/>
    <polygon class="fil1" points="8070,2626 7386,2753 7525,2809 "/>
    <polygon class="fil1" points="8070,2626 7763,3035 7604,2880 "/>
   </g>
   <g>
    <path class="fil16" d="M6313 4730c67,-16 137,-25 208,-25 99,0 181,-81 181,-181 0,-8 -1,-17 -2,-25l286 0c43,0 78,35 78,78l0 324 0 24 0 206c0,3 -2,6 -5,8 -3,1 -7,0 -10,-2l-133 -134 -524 0c-43,0 -79,-35 -79,-78l0 -195z"/>
    <path class="fil17" d="M6362 4469l594 0c43,0 78,35 78,78l0 324 0 24 0 206c0,3 -2,7 -5,8 -3,1 -7,1 -10,-2l-133 -134 -524 0c-43,0 -78,-35 -78,-78l0 -348c0,-43 35,-78 78,-78z"/>
    <g>
     <path class="fil1" d="M6741 4611l99 0c25,0 48,11 64,28 16,17 26,40 26,66l0 0c0,0 0,1 0,1 0,25 -10,48 -26,65 -17,17 -40,27 -65,27l0 0c0,0 -1,0 -1,0l-97 0 -173 86c-4,2 -8,3 -12,3 -5,0 -8,-2 -12,-4 -4,-2 -6,-5 -8,-9 -2,-3 -3,-7 -3,-12l1 -318c0,-4 1,-8 3,-12 2,-3 5,-6 8,-8 4,-3 8,-4 12,-4 4,0 8,0 12,2l1 1 171 88zm99 25l0 0 -101 -1c-2,0 -4,0 -6,-1l-174 -89 -1 317 174 -88c2,0 4,-1 6,-1l100 0 1 0c18,0 35,-7 47,-20 12,-12 19,-28 20,-47l0 -1c0,-19 -8,-37 -20,-49 -12,-13 -28,-20 -46,-20z"/>
     <path class="fil1" d="M6862 4782l0 111c0,22 -18,40 -40,40 -22,0 -40,-18 -40,-40l0 -108 57 1c8,0 15,-1 23,-4z"/>
     <polygon class="fil1" points="6757,4785 6775,4785 6775,4623 6757,4623 "/>
     <polygon class="fil1" points="6816,4785 6835,4785 6835,4623 6816,4623 "/>
     <path class="fil1" d="M6497 4651c7,1 11,7 10,14 -1,7 -7,11 -14,10l-95 -16c-7,-1 -11,-8 -10,-15 1,-6 7,-11 14,-10l95 17zm-7 153l0 0c6,-3 13,0 16,6 3,6 1,13 -6,16l-62 30c-6,3 -14,1 -17,-5 -3,-6 0,-14 6,-17l63 -30zm10 -224l0 0c7,3 9,11 6,17 -3,6 -10,9 -16,6l-72 -35c-6,-3 -9,-10 -6,-16 3,-6 11,-9 17,-6l71 34zm-7 152l0 0c7,-2 13,3 14,10 1,6 -3,13 -10,14l-95 16c-7,2 -13,-3 -14,-10 -1,-6 3,-13 10,-14l95 -16z"/>
    </g>
   </g>
   <path class="fil18" d="M9671 3055l-618 0c-45,0 -82,37 -82,82l0 336 0 25 0 214c0,4 2,7 6,9 3,1 7,0 10,-2l139 -139 545 0c45,0 81,-37 81,-82l0 -361c0,-45 -36,-82 -81,-82z"/>
   <path class="fil17" d="M9635 3055l-618 0c-45,0 -81,37 -81,82l0 336 0 25 0 214c0,4 2,7 5,9 4,1 8,0 10,-2l139 -139 545 0c45,0 82,-37 82,-82l0 -361c0,-45 -37,-82 -82,-82z"/>
   <g>
    <g>
     <path class="fil19" d="M9172 3306c32,0 59,-26 59,-59 0,-32 -27,-58 -59,-58 -32,0 -59,26 -59,58 0,33 27,59 59,59z"/>
     <path class="fil19" d="M9172 3325c46,0 83,37 83,83l0 36 0 22 0 24c0,5 -4,9 -9,9l-148 0c-5,0 -9,-4 -9,-9l0 -24 0 -22 0 -36c0,-46 37,-83 83,-83z"/>
    </g>
    <g>
     <path class="fil19" d="M9481 3306c32,0 58,-26 58,-59 0,-32 -26,-58 -58,-58 -33,0 -59,26 -59,58 0,33 26,59 59,59z"/>
     <path class="fil19" d="M9481 3325c45,0 83,37 83,83l0 36 0 22 0 24c0,5 -4,9 -9,9l-149 0c-5,0 -9,-4 -9,-9l0 -24 0 -22 0 -36c0,-46 38,-83 84,-83z"/>
    </g>
   </g>
   <g>
    <path class="fil1" d="M9326 3267c39,0 71,-32 71,-71 0,-39 -32,-70 -71,-70 -39,0 -70,31 -70,70 0,39 31,71 70,71z"/>
    <path class="fil1" d="M9326 3290c55,0 101,45 101,100l0 43 0 26 0 29c0,6 -6,11 -12,11l-178 0c-6,0 -11,-5 -11,-11l0 -29 0 -26 0 -43c0,-55 45,-100 100,-100z"/>
   </g>
   <path class="fil1" d="M10186 4780c56,0 109,22 148,62 40,39 62,92 62,148 0,56 -22,109 -62,149 -39,39 -92,61 -148,61 -56,0 -109,-22 -149,-61 -39,-40 -61,-93 -61,-149 0,-56 22,-109 61,-148 40,-40 93,-62 149,-62zm187 221l0 0 -86 0c0,23 -3,46 -7,68 22,6 43,13 63,23 18,-27 28,-58 30,-91zm-108 0l0 0 -68 0 0 58c20,1 41,3 61,6 4,-21 6,-42 7,-64zm-90 0l0 0 -68 0c0,22 2,43 6,64 21,-3 41,-5 62,-6l0 -58zm-91 0l0 0 -85 0c1,33 12,64 29,91 20,-10 42,-17 63,-23 -4,-22 -6,-45 -7,-68zm-85 -22l0 0 85 0c1,-19 2,-39 6,-58 -23,-5 -46,-13 -66,-25 -15,25 -24,54 -25,83zm112 -53l0 0c-2,17 -4,35 -4,53l68 0 0 -47c-22,0 -43,-2 -64,-6zm149 0l0 0c-21,4 -42,6 -63,6l0 47 68 0c-1,-18 -2,-36 -5,-53zm27 53l0 0 86 0c-2,-29 -10,-58 -25,-83 -20,12 -43,20 -66,25 3,19 5,39 5,58zm-90 -174l0 0 0 105c20,-1 39,-3 59,-6 -4,-17 -9,-34 -16,-50 -8,-17 -23,-42 -43,-49zm0 277l0 0 0 94c20,-8 35,-32 43,-50 5,-12 10,-26 13,-39 -18,-3 -37,-5 -56,-5zm-22 94l0 0 0 -94c-19,0 -38,2 -57,5 4,13 8,27 14,39 8,18 23,43 43,50zm0 -266l0 0 0 -105c-20,7 -35,32 -43,49 -7,16 -12,33 -16,50 19,3 39,5 59,6zm-139 -33l0 0c18,10 38,17 58,22 4,-18 10,-37 18,-54 5,-12 12,-24 20,-35 -29,9 -57,25 -79,48 -6,6 -12,12 -17,19zm242 22l0 0c19,-5 40,-12 57,-22 -5,-7 -10,-13 -17,-19 -22,-23 -49,-39 -79,-48 9,11 15,23 21,35 8,17 13,36 18,54zm52 212l0 0c-17,-9 -36,-15 -55,-20 -4,15 -9,30 -15,44 -6,12 -12,24 -21,35 30,-9 57,-25 79,-47 4,-4 8,-8 12,-12zm-234 -20l0 0c-18,5 -37,11 -54,20 4,4 7,8 11,12 22,22 50,38 79,47 -8,-11 -15,-23 -20,-35 -7,-14 -12,-29 -16,-44z"/>
   <path class="fil1" d="M6068 3820c7,-13 17,-24 31,-31 12,-7 19,-18 22,-31 5,-16 5,-35 5,-51 0,-7 5,-12 12,-12l20 0c2,0 4,0 6,1 9,3 17,12 22,20 6,11 9,25 9,38 0,8 -1,17 -4,25 -1,6 -6,22 -4,28 1,1 3,1 3,1l51 0c6,0 11,0 17,2 8,2 15,6 20,12 7,7 9,16 9,26 0,5 0,10 -1,15 7,19 8,43 -6,58 1,15 -3,32 -16,42 -8,22 -25,36 -49,36l-93 0c-15,0 -31,-9 -44,-18 -1,4 -4,8 -7,11l0 1c-5,4 -12,7 -18,7l-42 0c-7,0 -14,-3 -19,-8 -5,-5 -7,-11 -7,-18l0 -133c0,-7 2,-14 7,-19l1 0c5,-5 11,-7 18,-7l42 0c5,0 11,2 15,5zm11 131l0 0c11,10 28,24 43,24l93 0c13,0 24,-9 27,-22 1,-4 3,-7 6,-8 9,-5 9,-19 8,-27 -1,-4 1,-9 4,-11 12,-9 8,-26 3,-37 -1,-3 -2,-6 -1,-9 1,-4 2,-8 2,-13 0,-4 -1,-8 -3,-11 -3,-2 -6,-4 -9,-5 -4,-1 -7,-1 -11,-1l-51 0c-11,0 -20,-4 -25,-15 -5,-12 0,-32 4,-44 2,-6 3,-12 3,-18 0,-9 -2,-18 -7,-26 -1,-3 -5,-8 -8,-10l-8 0c0,16 -1,32 -5,46 -6,20 -16,35 -34,45 -18,10 -28,32 -31,51l0 91zm-26 -113l0 0 -42 0c-1,0 -2,0 -2,1l0 0c-1,1 -1,1 -1,2l0 133c0,1 0,1 1,2 0,0 1,0 2,0l42 0c0,0 1,0 1,0l1 0c0,-1 0,-1 0,-2l0 -133c0,-1 0,-1 0,-2 -1,0 -2,-1 -2,-1z"/>
   <g>
    <path class="fil1" d="M9417 2915l36 0c8,0 15,-7 15,-15l0 -36c0,-9 -7,-16 -15,-16l-36 0c-9,0 -16,7 -16,16l0 36c0,8 7,15 16,15z"/>
    <path class="fil20" d="M9541 2915l35 0c9,0 16,-7 16,-15l0 -36c0,-9 -7,-16 -16,-16l-35 0c-9,0 -16,7 -16,16l0 36c0,8 7,15 16,15z"/>
    <path class="fil1" d="M9664 2915l36 0c8,0 15,-7 15,-15l0 -36c0,-9 -7,-16 -15,-16l-36 0c-8,0 -15,7 -15,16l0 36c0,8 7,15 15,15z"/>
    <path class="fil20" d="M9788 2915l36 0c8,0 15,-7 15,-15l0 -36c0,-9 -7,-16 -15,-16l-36 0c-9,0 -16,7 -16,16l0 36c0,8 7,15 16,15z"/>
    <path class="fil1" d="M9912 2915l35 0c9,0 16,-7 16,-15l0 -36c0,-9 -7,-16 -16,-16l-35 0c-9,0 -16,7 -16,16l0 36c0,8 7,15 16,15z"/>
    <path class="fil1" d="M10035 2915l36 0c8,0 15,-7 15,-15l0 -36c0,-9 -7,-16 -15,-16l-36 0c-8,0 -15,7 -15,16l0 36c0,8 7,15 15,15z"/>
    <path class="fil1" d="M10159 2915l35 0c9,0 16,-7 16,-15l0 -36c0,-9 -7,-16 -16,-16l-35 0c-9,0 -16,7 -16,16l0 36c0,8 7,15 16,15z"/>
    <path class="fil1" d="M9792 2780l36 0c9,0 16,-7 16,-15l0 -36c0,-9 -7,-16 -16,-16l-36 0c-8,0 -15,7 -15,16l0 36c0,8 7,15 15,15z"/>
    <path class="fil20" d="M9916 2780l36 0c8,0 15,-7 15,-15l0 -36c0,-9 -7,-16 -15,-16l-36 0c-9,0 -16,7 -16,16l0 36c0,8 7,15 16,15z"/>
    <path class="fil1" d="M10040 2780l35 0c9,0 16,-7 16,-15l0 -36c0,-9 -7,-16 -16,-16l-35 0c-9,0 -16,7 -16,16l0 36c0,8 7,15 16,15z"/>
    <path class="fil1" d="M9912 3060l35 0c9,0 16,-7 16,-16l0 -35c0,-9 -7,-16 -16,-16l-35 0c-9,0 -16,7 -16,16l0 35c0,9 7,16 16,16z"/>
    <path class="fil20" d="M10035 3060l36 0c8,0 15,-7 15,-16l0 -35c0,-9 -7,-16 -15,-16l-36 0c-8,0 -15,7 -15,16l0 35c0,9 7,16 15,16z"/>
   </g>
   <path class="fil1" d="M6911 3935c36,-36 94,-36 130,0l8 9 9 -9c36,-36 94,-36 130,0 35,36 35,94 0,129l-9 9 -130 130 -129 -130 -9 -9c-36,-35 -36,-93 0,-129z"/>
   <g>
    <g>
     <g>
      <path class="fil21" d="M6736 5457c-95,-97 -166,26 -156,150 10,117 110,518 92,687l38 0c95,-217 148,-713 26,-837z"/>
      <path class="fil22" d="M6696 6294c92,-342 -24,-813 -25,-815 0,-3 -3,-5 -6,-4 -3,1 -5,4 -4,7 0,1 117,474 24,812l11 0z"/>
     </g>
     <g>
      <path class="fil1" d="M6502 5670c-101,-53 -126,63 -87,159 33,79 176,314 230,465l51 0c4,-209 -76,-561 -194,-624z"/>
      <path class="fil23" d="M6677 6294c-33,-282 -221,-589 -221,-590 -2,-2 -5,-3 -7,-1 -2,1 -3,4 -1,6 0,1 187,306 220,585l9 0z"/>
     </g>
     <g>
      <path class="fil24" d="M6925 5804c97,-42 112,67 69,154 -29,58 -134,208 -205,336l-81 0c28,-193 117,-446 217,-490z"/>
      <path class="fil25" d="M6737 6294c69,-234 228,-454 228,-455 2,-2 4,-2 6,-1 2,1 3,4 1,6 0,1 -157,219 -226,450l-9 0z"/>
     </g>
    </g>
    <g>
     <path class="fil26" d="M6539 6203l336 0c10,0 18,8 18,18l0 83c0,10 -8,18 -18,18l-336 0c-10,0 -18,-8 -18,-18l0 -83c0,-10 8,-18 18,-18z"/>
     <polygon class="fil26" points="6597,6270 6817,6270 6875,6322 6828,6503 6707,6503 6586,6503 6539,6322 "/>
     <polygon class="fil27" points="6875,6322 6865,6359 6549,6359 6539,6322 "/>
    </g>
   </g>
   <path class="fil28" d="M8471 2881c17,0 31,-14 31,-32 0,-17 -14,-31 -31,-31 -17,0 -31,14 -31,31 0,18 14,32 31,32z"/>
   <path class="fil29" d="M8979 4667c17,0 31,-14 31,-31 0,-17 -14,-31 -31,-31 -17,0 -31,14 -31,31 0,17 14,31 31,31z"/>
   <path class="fil30" d="M9612 5969c17,0 31,-14 31,-32 0,-17 -14,-31 -31,-31 -17,0 -31,14 -31,31 0,18 14,32 31,32z"/>
   <path class="fil29" d="M5976 5719c17,0 31,-14 31,-31 0,-17 -14,-31 -31,-31 -17,0 -31,14 -31,31 0,17 14,31 31,31z"/>
   <path class="fil30" d="M9719 3830c17,0 31,-14 31,-31 0,-18 -14,-32 -31,-32 -17,0 -31,14 -31,32 0,17 14,31 31,31z"/>
   <path class="fil29" d="M6912 3625c17,0 31,-14 31,-31 0,-18 -14,-32 -31,-32 -18,0 -32,14 -32,32 0,17 14,31 32,31z"/>
   <path class="fil1" d="M6836 5416c17,0 31,-14 31,-31 0,-17 -14,-31 -31,-31 -17,0 -31,14 -31,31 0,17 14,31 31,31z"/>
   <path class="fil1" d="M9817 5260c17,0 31,-14 31,-31 0,-17 -14,-31 -31,-31 -17,0 -31,14 -31,31 0,17 14,31 31,31z"/>
   <path class="fil1" d="M9193 3941c17,0 31,-14 31,-31 0,-17 -14,-31 -31,-31 -17,0 -31,14 -31,31 0,17 14,31 31,31z"/>
   <path class="fil1" d="M8939 2787c17,0 31,-14 31,-31 0,-17 -14,-31 -31,-31 -17,0 -31,14 -31,31 0,17 14,31 31,31z"/>
   <path class="fil1" d="M10196 3571c17,0 31,-14 31,-31 0,-17 -14,-31 -31,-31 -18,0 -32,14 -32,31 0,17 14,31 32,31z"/>
   <g>
    <path class="fil31" d="M9698 6203c27,0 53,11 72,30 19,19 30,45 30,72 0,27 -11,53 -30,72 -19,19 -45,30 -72,30 -27,0 -53,-11 -72,-30 -19,-19 -30,-45 -30,-72 0,-27 11,-53 30,-72 19,-19 45,-30 72,-30zm44 58l0 0c-12,-12 -28,-18 -44,-18 -17,0 -32,6 -44,18 -12,12 -18,27 -18,44 0,17 6,32 18,44 12,12 27,18 44,18 16,0 32,-6 44,-18 12,-12 18,-27 18,-44 0,-17 -6,-32 -18,-44z"/>
    <path class="fil6" d="M9535 6505c88,0 160,-72 160,-160l0 -9 0 -146 0 -12c0,-8 -6,-14 -14,-14l-291 0c-8,0 -14,6 -14,14l0 12 0 146 0 9c0,88 72,160 159,160z"/>
    <path class="fil31" d="M9641 6325c0,17 -3,33 -8,49 -3,9 -6,17 -11,25 -17,33 -46,59 -80,73 -19,8 -40,13 -61,13 -9,0 -18,-1 -26,-2 23,14 51,22 80,22 36,0 70,-12 96,-33 18,-13 33,-29 43,-48 5,-8 9,-16 12,-25 6,-17 9,-35 9,-54l0 -9 0 -93 0 -25 0 -28 0 -12c0,-8 -6,-14 -14,-14l-40 0 0 6 0 61 0 31 0 54 0 9z"/>
    <path class="fil6" d="M9397 6505l277 0c12,0 21,-10 21,-22 0,-11 -9,-21 -21,-21l-277 0c-12,0 -21,10 -21,21 0,12 9,22 21,22z"/>
    <path class="fil32" d="M9427 6194l0 0c15,0 27,12 27,27l0 97c0,15 -12,27 -27,27l0 0c-15,0 -27,-12 -27,-27l0 -97c0,-15 12,-27 27,-27z"/>
    <path class="fil1" d="M9399 5967l122 0c9,0 17,-8 17,-17 0,-9 -8,-17 -17,-17l-164 0c-24,0 -44,-20 -44,-44 0,-24 20,-44 44,-44l426 0c24,0 44,20 44,44 0,24 -20,44 -44,44l-148 0c-10,0 -17,8 -17,17 0,9 7,17 17,17l57 0c18,0 34,15 34,34 0,18 -16,33 -34,33l-95 0c-37,0 -67,31 -67,68l0 31c0,8 -7,16 -16,16 -9,0 -16,-8 -16,-16l0 -59c0,-22 -18,-40 -40,-40l-59 0c-19,0 -34,-15 -34,-33 0,-19 15,-34 34,-34z"/>
   </g>
   <g>
    <path class="fil33" d="M8126 5884c38,1 71,15 98,37 25,22 44,50 52,81 0,0 0,0 0,0 0,2 1,4 2,7 0,1 0,1 0,2 0,0 0,0 0,0 1,4 1,9 2,16 0,0 -3,0 -9,1 0,-7 -1,-13 -2,-17 -7,-31 -24,-58 -49,-79 -25,-22 -58,-36 -94,-36 -36,-1 -68,12 -92,34 -23,21 -37,49 -40,80 -3,0 -6,0 -9,0 3,-33 17,-64 41,-87 25,-24 61,-39 100,-39zm-114 212c14,23 33,43 56,56 22,12 47,20 73,20 26,0 50,-7 70,-19 20,-13 38,-31 49,-54 2,0 5,1 8,1 -12,24 -30,44 -52,57 -22,13 -47,20 -75,20 -27,0 -54,-8 -77,-21 -25,-14 -46,-35 -60,-60 3,0 6,0 8,0z"/>
    <path class="fil34" d="M7891 6082c0,0 13,10 29,10 17,0 24,-11 20,-23 -4,-12 -16,-20 -27,-22 4,-7 7,-15 11,-23 -1,-3 -2,-6 -2,-9 -15,0 -30,0 -45,-1 -6,0 -7,3 -5,8 2,4 3,9 5,13 4,0 9,0 13,0 0,-2 -1,-3 -2,-5 0,-2 1,-3 2,-3 3,0 7,0 10,0 5,1 7,0 7,0 0,0 0,0 0,0 0,0 -1,2 -3,7 -2,6 -5,11 -7,17 1,3 3,5 5,7 2,0 4,0 5,0 9,0 17,5 19,11 2,7 -2,11 -10,11 -11,0 -21,-8 -21,-8 -2,4 -3,7 -4,10zm92 11c15,0 22,-11 19,-24 -2,-14 -15,-25 -30,-26 -6,0 -12,3 -14,6 0,0 0,0 0,0 -1,-11 3,-21 16,-21 6,0 12,2 12,2 0,-4 1,-8 1,-12 0,0 -7,-4 -18,-4 -25,0 -30,24 -24,45 6,22 23,34 38,34zm-23 -30c-1,-5 4,-8 11,-8 9,0 16,6 18,14 1,7 -2,12 -9,12 -8,0 -17,-9 -20,-18zm83 30c20,0 24,-16 21,-37 -3,-23 -13,-41 -35,-42 -23,0 -26,19 -21,41 4,22 14,38 35,38zm-3 -12c-10,0 -15,-11 -18,-26 -3,-15 -2,-27 9,-27 11,0 16,13 19,28 2,14 1,25 -10,25z"/>
    <path id="1" class="fil35" d="M8076 6082c0,0 11,11 27,11 16,1 24,-9 24,-20 -2,-25 -39,-22 -40,-36 -1,-5 4,-8 11,-8 5,0 11,2 11,6 0,1 0,2 0,4 5,0 9,0 13,0 0,-3 0,-5 0,-8 -1,-11 -16,-16 -25,-16 -16,0 -26,10 -25,23 3,24 40,23 41,35 0,6 -5,9 -11,9 -10,0 -19,-9 -19,-9 -2,3 -4,6 -7,9zm58 -15c1,16 15,27 31,27 16,0 29,-11 29,-27 1,-16 -13,-28 -30,-28 -17,-1 -31,11 -30,28zm14 0c0,-10 7,-17 16,-17 9,0 17,7 17,17 0,10 -8,16 -17,16 -8,0 -16,-6 -16,-16zm53 0c0,15 11,27 28,27 14,0 23,-9 23,-9 -2,-3 -3,-5 -5,-8 0,0 -7,6 -16,6 -9,0 -17,-5 -16,-16 0,-9 7,-16 17,-16 3,0 8,1 8,4 0,1 0,2 -1,3 5,0 9,0 13,0 0,-2 0,-4 0,-6 1,-10 -12,-13 -19,-13 -20,0 -31,13 -32,28zm68 -36c4,1 8,1 12,1 1,-5 1,-9 2,-14 -4,0 -8,0 -13,0 0,5 -1,9 -1,13zm-7 56c0,4 2,6 7,6 4,0 8,0 12,0 1,-3 1,-7 2,-10 -2,0 -3,0 -5,0 -1,0 -2,-1 -2,-2 2,-11 3,-22 4,-33 1,-5 -1,-7 -6,-7 -5,0 -9,0 -13,0 -1,4 -1,8 -2,11 2,0 3,0 5,0 1,0 2,1 2,3 -1,11 -2,21 -4,32zm27 -8c-1,10 6,16 16,16 12,0 17,-9 17,-9 0,0 0,0 0,0 0,0 0,1 0,2 -1,3 1,6 6,6 3,0 7,0 11,0 1,-4 2,-7 2,-11 -1,0 -2,0 -4,0 -1,0 -2,0 -2,-2 2,-6 3,-13 4,-19 3,-12 -1,-22 -20,-22 -5,0 -20,1 -22,11 0,2 0,4 -1,6 5,0 9,0 13,0 0,-1 0,-2 0,-3 1,-3 6,-4 8,-4 7,1 10,3 9,11 0,0 0,0 0,1 -1,0 -2,0 -2,0 -9,-1 -33,1 -35,17zm14 -1c1,-7 12,-8 19,-7 1,0 1,0 2,0 0,0 0,0 0,1 -1,6 -7,13 -14,13 -6,0 -8,-3 -7,-7zm48 9c-1,5 0,7 5,7 4,0 9,0 13,0 1,-3 1,-7 2,-10 -1,0 -3,0 -4,0 -1,0 -2,-1 -2,-3 5,-17 9,-35 13,-54 1,-5 0,-8 -6,-8 -4,0 -9,0 -13,0 -1,4 -2,8 -3,12 2,0 3,0 5,0 1,0 2,1 2,3 -5,18 -8,36 -12,53z"/>
    <path class="fil17" d="M8277 6015c6,0 10,5 9,11 -1,5 -6,10 -11,10 -6,0 -10,-5 -9,-11 0,-5 5,-10 11,-10z"/>
   </g>
  </g>
 </g>
</svg>
