<?xml version="1.0" encoding="UTF-8"?>
<!DOCTYPE svg PUBLIC "-//W3C//DTD SVG 1.1//EN" "http://www.w3.org/Graphics/SVG/1.1/DTD/svg11.dtd">
<!-- Creator: CorelDRAW X7 -->
<svg xmlns="http://www.w3.org/2000/svg" xml:space="preserve" width="127mm" height="127mm" version="1.1" style="shape-rendering:geometricPrecision; text-rendering:geometricPrecision; image-rendering:optimizeQuality; fill-rule:evenodd; clip-rule:evenodd"
viewBox="0 0 12700 12700"
 xmlns:xlink="http://www.w3.org/1999/xlink">
 <defs>
  <style type="text/css">
   <![CDATA[
    .fil3 {fill:none}
    .fil4 {fill:#330099}
    .fil7 {fill:#FF6600}
    .fil0 {fill:white}
    .fil6 {fill:#330099;fill-rule:nonzero}
    .fil8 {fill:#4D4D4D;fill-rule:nonzero}
    .fil5 {fill:#FF6600;fill-rule:nonzero}
    .fil11 {fill:white;fill-rule:nonzero}
    .fil10 {fill:white;fill-rule:nonzero}
    .fil1 {fill:#330099;fill-opacity:0.250980}
    .fil2 {fill:#FF6600;fill-opacity:0.250980}
    .fil9 {fill:white;fill-opacity:0.250980}
   ]]>
  </style>
   <clipPath id="id0">
    <path d="M12700 0l12700 0 0 12700 -12700 0 0 -12700z"/>
   </clipPath>
   <clipPath id="id1">
    <path d="M25400 0l12700 0 0 12700 -12700 0 0 -12700z"/>
   </clipPath>
   <clipPath id="id2">
    <path d="M38100 0l12700 0 0 12700 -12700 0 0 -12700z"/>
   </clipPath>
 </defs>
 <g id="Camada_x0020_1">
  <metadata id="CorelCorpID_0Corel-Layer"/>
  <polygon class="fil0" points="12700,0 25400,0 25400,12700 12700,12700 "/>
  <g style="clip-path:url(#id0)">
   <g id="_2121451666640">
    <g>
     <path id="1" class="fil1" d="M13307 9012c583,0 1129,155 1600,425 -41,31 -71,78 -80,132 -448,-256 -967,-403 -1520,-403 -1693,0 -3066,1373 -3066,3067 0,1694 1373,3067 3066,3067 1694,0 3067,-1373 3067,-3067 0,-605 -175,-1168 -477,-1643 -17,-22 -22,-52 -12,-78 11,-26 34,-44 62,-48 28,-4 55,8 72,30 323,502 510,1098 510,1739 0,1779 -1443,3221 -3222,3221 -1779,0 -3221,-1442 -3221,-3221 0,-1779 1442,-3221 3221,-3221z"/>
     <path class="fil2" d="M15033 9395c116,0 210,94 210,209 0,116 -94,210 -210,210 -115,0 -209,-94 -209,-210 0,-115 94,-209 209,-209z"/>
    </g>
    <g>
     <path class="fil1" d="M24949 -3759c583,0 1129,155 1600,425 -42,32 -71,78 -80,132 -448,-256 -967,-402 -1520,-402 -1694,0 -3067,1373 -3067,3066 0,1694 1373,3067 3067,3067 1694,0 3067,-1373 3067,-3067 0,-604 -175,-1168 -477,-1643 -18,-22 -22,-51 -12,-77 10,-26 34,-45 62,-48 27,-4 55,7 72,29 322,502 509,1099 509,1739 0,1779 -1442,3222 -3221,3222 -1779,0 -3221,-1443 -3221,-3222 0,-1779 1442,-3221 3221,-3221z"/>
     <path class="fil2" d="M26675 -3376c116,0 209,94 209,210 0,115 -93,209 -209,209 -116,0 -209,-94 -209,-209 0,-116 93,-210 209,-210z"/>
    </g>
   </g>
  </g>
  <polygon class="fil3" points="12700,0 25400,0 25400,12700 12700,12700 "/>
  <g id="_2121451665264">
   <path class="fil4" d="M19118 3385c1253,0 2324,777 2758,1875l0 0c15,34 32,79 50,136 2,8 5,16 8,23l-1 0c25,82 52,185 83,309 0,0 -61,6 -181,17 -22,-129 -47,-237 -74,-326 -383,-1089 -1422,-1870 -2643,-1870 -1237,0 -2287,802 -2658,1915l-171 0c377,-1205 1501,-2079 2829,-2079zm-2658 3851c371,1113 1421,1915 2658,1915 1221,0 2260,-781 2643,-1870l173 0c-391,1181 -1503,2034 -2816,2034 -1328,0 -2452,-874 -2829,-2079l171 0z"/>
   <path class="fil5" d="M14001 6942c0,0 193,222 535,222 357,0 561,-248 561,-510 0,-266 -193,-426 -406,-459l362 -453 0 -180 -857 0c-106,0 -137,47 -137,151l0 240 261 0 0 -96c0,-31 18,-48 49,-48l198 0c91,0 139,-7 139,-7l0 4c0,0 -51,40 -104,120l-266 357 58 145 111 0c168,0 297,91 297,230 0,138 -113,236 -269,236 -233,0 -386,-169 -386,-169l-146 217z"/>
   <path id="1" class="fil5" d="M15860 7164c311,0 517,-235 517,-528 0,-282 -193,-523 -503,-523 -114,0 -240,46 -293,115l-5 0c38,-222 171,-428 417,-428 120,0 222,49 222,49l85 -247c0,0 -125,-66 -324,-66 -488,0 -726,477 -726,896 0,466 282,732 610,732zm-310 -645c0,-96 117,-171 257,-171 189,0 289,131 289,288 0,149 -89,267 -238,267 -164,0 -308,-187 -308,-384z"/>
   <path id="2" class="fil5" d="M17114 7164c430,0 570,-364 570,-816 0,-453 -140,-812 -570,-812 -430,0 -570,359 -570,812 0,452 140,816 570,816zm0 -261c-215,0 -277,-245 -277,-555 0,-306 62,-548 277,-548 215,0 277,242 277,548 0,310 -62,555 -277,555z"/>
   <path id="3" class="fil6" d="M17864 6920c0,0 193,244 541,244 331,0 524,-213 524,-463 0,-517 -741,-464 -741,-733 0,-100 98,-168 231,-168 104,0 208,49 208,122l0 71 262 0 0 -147c0,-224 -284,-310 -468,-310 -304,0 -526,188 -526,443 0,491 741,469 741,737 0,122 -106,187 -226,187 -220,0 -382,-187 -382,-187l-164 204z"/>
   <path id="4" class="fil6" d="M19093 6572c0,348 275,592 619,592 346,0 622,-244 622,-592 0,-346 -276,-593 -622,-593 -344,0 -619,247 -619,593zm284 0c0,-209 153,-353 335,-353 185,0 338,144 338,353 0,211 -153,353 -338,353 -182,0 -335,-142 -335,-353z"/>
   <path id="5" class="fil6" d="M20476 6572c0,328 239,592 612,592 308,0 477,-204 477,-204l-117 -195c0,0 -142,153 -336,153 -181,0 -352,-118 -352,-348 0,-204 139,-353 335,-353 69,0 162,26 162,89l0 62 248 0 0 -133c0,-196 -264,-256 -410,-256 -389,0 -619,273 -619,593z"/>
   <path id="6" class="fil6" d="M21805 5822l244 0 0 -260 -244 0 0 260zm-14 1165c0,106 45,151 149,151l269 0 0 -238 -89 0c-31,0 -49,-17 -49,-49l0 -694c0,-104 -44,-151 -149,-151l-268 0 0 240 89 0c31,0 48,15 48,49l0 692z"/>
   <path id="7" class="fil6" d="M22335 6812c0,226 184,352 386,352 255,0 342,-199 342,-199l4 0c0,0 -2,20 -2,48 0,67 40,125 144,125l253 0 0 -238 -88 0c-32,0 -49,-17 -49,-49l0 -421c0,-253 -111,-451 -488,-451 -118,0 -415,23 -415,233l0 120 261 0 0 -60c0,-62 100,-75 151,-75 145,0 209,60 209,222l0 9 -36 0c-184,0 -672,29 -672,384zm284 -14c0,-157 233,-177 380,-177l48 0 0 26c0,138 -106,298 -257,298 -115,0 -171,-71 -171,-147z"/>
   <path id="8" class="fil6" d="M23682 6987c0,106 44,151 151,151l266 0 0 -238 -86 0c-31,0 -49,-17 -49,-49l0 -1138c0,-104 -47,-151 -151,-151l-269 0 0 240 89 0c31,0 49,15 49,49l0 1136z"/>
   <circle class="fil7" cx="21928" cy="5704" r="201"/>
  </g>
  <path class="fil8" d="M14676 9938c0,98 69,174 170,174 85,0 133,-57 133,-57l-32 -44c0,0 -38,44 -100,44 -61,0 -108,-52 -108,-117 0,-69 47,-111 106,-111 29,0 68,11 68,35l0 19 56 0 0 -37c0,-57 -83,-74 -126,-74 -96,0 -167,72 -167,168z"/>
  <path id="1" class="fil8" d="M15031 10106l58 0 0 -94c0,-14 2,-27 6,-39 10,-35 39,-50 64,-50 9,0 15,1 15,1l0 -58c0,0 -6,-1 -11,-1 -36,0 -65,27 -75,61l-1 0c0,0 1,-6 1,-15l0 -14c0,-20 -11,-29 -32,-29l-54 0 0 51 18 0c7,0 11,3 11,10l0 177z"/>
  <path id="2" class="fil8" d="M15227 9830l52 0 0 -55 -52 0 0 55zm-2 244c0,23 9,32 31,32l56 0 0 -50 -18 0c-7,0 -11,-3 -11,-10l0 -146c0,-22 -9,-32 -31,-32l-56 0 0 51 18 0c7,0 11,3 11,10l0 145z"/>
  <path id="3" class="fil8" d="M15339 10038c0,47 38,74 81,74 53,0 72,-42 72,-42l1 0c0,0 -1,4 -1,10 0,14 8,26 30,26l53 0 0 -50 -18 0c-7,0 -10,-3 -10,-10l0 -89c0,-53 -24,-94 -103,-94 -25,0 -87,5 -87,49l0 25 55 0 0 -13c0,-13 21,-15 32,-15 30,0 43,12 43,46l0 2 -7 0c-39,0 -141,6 -141,81zm59 -3c0,-33 49,-37 80,-37l10 0 0 5c0,29 -22,63 -54,63 -24,0 -36,-15 -36,-31z"/>
  <path id="4" class="fil8" d="M15623 10106l59 0 0 -109c0,-11 1,-22 4,-32 9,-28 33,-48 64,-48 30,0 38,20 38,48l0 109c0,23 9,32 31,32l57 0 0 -50 -19 0c-7,0 -10,-3 -10,-10l0 -93c0,-63 -31,-90 -83,-90 -48,0 -74,29 -84,49l-1 0c0,0 1,-5 1,-10l0 -7c0,-17 -10,-27 -31,-27l-55 0 0 51 19 0c6,0 10,3 10,10l0 177z"/>
  <path id="5" class="fil8" d="M15899 9987c0,74 41,125 106,125 54,0 74,-39 74,-39l1 0c0,0 0,4 0,9 0,14 8,24 29,24l55 0 0 -50 -19 0c-6,0 -10,-3 -10,-10l0 -239c0,-22 -10,-32 -32,-32l-56 0 0 51 19 0c6,0 10,3 10,10l0 42c0,8 0,14 0,14l0 0c0,0 -17,-29 -69,-29 -63,0 -108,49 -108,124zm119 75c-35,0 -59,-29 -59,-75 0,-47 27,-73 60,-73 39,0 58,36 58,73 0,53 -29,75 -59,75z"/>
  <path id="6" class="fil8" d="M16189 9987c0,73 58,125 130,125 72,0 130,-52 130,-125 0,-72 -58,-124 -130,-124 -72,0 -130,52 -130,124zm59 0c0,-44 33,-74 71,-74 38,0 71,30 71,74 0,45 -33,74 -71,74 -38,0 -71,-29 -71,-74z"/>
  <path id="7" class="fil8" d="M16603 9987c0,69 50,125 128,125 65,0 100,-43 100,-43l-24 -41c0,0 -30,32 -71,32 -38,0 -74,-25 -74,-73 0,-43 30,-74 71,-74 14,0 34,5 34,18l0 13 52 0 0 -28c0,-41 -56,-53 -86,-53 -82,0 -130,57 -130,124z"/>
  <path id="8" class="fil8" d="M16853 9987c0,73 58,125 130,125 73,0 131,-52 131,-125 0,-72 -58,-124 -131,-124 -72,0 -130,52 -130,124zm60 0c0,-44 32,-74 70,-74 39,0 71,30 71,74 0,45 -32,74 -71,74 -38,0 -70,-29 -70,-74z"/>
  <path id="9" class="fil8" d="M17167 10106l59 0 0 -109c0,-11 2,-22 5,-32 8,-28 32,-48 64,-48 30,0 37,20 37,48l0 109c0,23 9,32 32,32l56 0 0 -50 -19 0c-6,0 -10,-3 -10,-10l0 -93c0,-63 -30,-90 -83,-90 -48,0 -73,29 -84,49l-1 0c0,0 1,-5 1,-10l0 -7c0,-17 -10,-27 -31,-27l-54 0 0 51 18 0c7,0 10,3 10,10l0 177z"/>
  <path id="10" class="fil8" d="M17443 9987c0,68 49,125 128,125 59,0 96,-36 96,-36l-25 -41c0,0 -29,26 -67,26 -36,0 -66,-21 -71,-63l164 0c0,0 1,-15 1,-22 0,-63 -37,-113 -105,-113 -71,0 -121,51 -121,124zm63 -30c6,-30 28,-48 58,-48 24,0 44,19 45,48l-103 0z"/>
  <path id="11" class="fil8" d="M17693 10106l66 0 41 -66c3,-5 7,-13 7,-13l1 0c0,0 3,8 6,13l42 66 65 0 -77 -120 39 -59c5,-7 9,-8 18,-8l17 0 0 -51 -41 0c-20,0 -28,5 -38,23l-24 39c-3,6 -7,15 -7,15l-1 0c0,0 -4,-9 -8,-15l-23 -39c-11,-18 -19,-23 -39,-23l-41 0 0 51 17 0c10,0 14,1 18,8l39 59 -77 120z"/>
  <path id="12" class="fil8" d="M17942 9987c0,73 57,125 130,125 72,0 130,-52 130,-125 0,-72 -58,-124 -130,-124 -73,0 -130,52 -130,124zm59 0c0,-44 32,-74 71,-74 38,0 70,30 70,74 0,45 -32,74 -70,74 -39,0 -71,-29 -71,-74zm-14 -148l37 0c0,-16 6,-29 19,-29 20,0 28,30 60,30 35,1 53,-21 53,-63l-37 0c0,15 -6,29 -19,29 -20,0 -28,-31 -60,-31 -35,0 -53,22 -53,64l0 0z"/>
  <path id="13" class="fil8" d="M18232 9987c0,68 49,125 128,125 59,0 95,-36 95,-36l-25 -41c0,0 -28,26 -66,26 -36,0 -67,-21 -72,-63l164 0c0,0 2,-15 2,-22 0,-63 -37,-113 -105,-113 -72,0 -121,51 -121,124zm62 -30c7,-30 28,-48 59,-48 24,0 43,19 44,48l-103 0z"/>
  <path id="14" class="fil8" d="M18488 10069c0,0 34,43 99,43 52,0 91,-28 91,-73 0,-79 -126,-72 -126,-109 0,-14 14,-21 35,-21 14,0 30,5 30,16l0 12 52 0 0 -25c0,-38 -51,-49 -83,-49 -49,0 -92,22 -92,69 0,77 125,77 125,110 0,16 -14,24 -32,24 -41,0 -71,-35 -71,-35l-28 38z"/>
  <path id="15" class="fil8" d="M18833 9987c0,68 49,125 128,125 59,0 95,-36 95,-36l-24 -41c0,0 -29,26 -67,26 -36,0 -67,-21 -71,-63l164 0c0,0 1,-15 1,-22 0,-63 -37,-113 -105,-113 -72,0 -121,51 -121,124zm63 -30c6,-30 27,-48 58,-48 24,0 44,19 45,48l-103 0z"/>
  <path id="16" class="fil8" d="M19116 10106l59 0 0 -104c0,-11 2,-21 4,-30 7,-30 27,-55 57,-55 29,0 32,22 32,47l0 142 60 0 0 -104c0,-11 0,-21 3,-31 7,-29 28,-54 57,-54 28,0 33,20 33,47l0 110c0,23 9,32 31,32l56 0 0 -50 -18 0c-6,0 -10,-3 -10,-10l0 -93c0,-62 -29,-90 -78,-90 -38,0 -68,23 -81,49l-1 0c-10,-32 -33,-49 -69,-49 -38,0 -66,26 -77,49l-1 0c0,0 0,-5 0,-10l0 -7c0,-17 -10,-27 -31,-27l-54 0 0 51 18 0c7,0 10,3 10,10l0 177z"/>
  <path id="17" class="fil8" d="M19680 10019c0,80 66,89 99,89 11,0 18,-1 18,-1l0 -52c0,0 -4,1 -10,1 -17,0 -47,-5 -47,-44l0 -96 54 0 0 -48 -54 0 0 -64 -58 0 0 64 -32 0 0 48 30 0 0 103z"/>
  <path id="18" class="fil8" d="M19824 9987c0,73 58,125 130,125 73,0 131,-52 131,-125 0,-72 -58,-124 -131,-124 -72,0 -130,52 -130,124zm60 0c0,-44 32,-74 70,-74 39,0 71,30 71,74 0,45 -32,74 -71,74 -38,0 -70,-29 -70,-74z"/>
  <path id="19" class="fil8" d="M20115 9987c0,74 41,125 105,125 55,0 75,-39 75,-39l0 0c0,0 0,4 0,9 0,14 8,24 30,24l54 0 0 -50 -18 0c-6,0 -10,-3 -10,-10l0 -239c0,-22 -10,-32 -32,-32l-56 0 0 51 19 0c6,0 10,3 10,10l0 42c0,8 0,14 0,14l-1 0c0,0 -16,-29 -68,-29 -63,0 -108,49 -108,124zm119 75c-35,0 -59,-29 -59,-75 0,-47 27,-73 59,-73 40,0 59,36 59,73 0,53 -29,75 -59,75z"/>
  <path id="20" class="fil8" d="M20405 9987c0,73 57,125 130,125 72,0 130,-52 130,-125 0,-72 -58,-124 -130,-124 -73,0 -130,52 -130,124zm59 0c0,-44 32,-74 71,-74 38,0 70,30 70,74 0,45 -32,74 -70,74 -39,0 -71,-29 -71,-74z"/>
  <path id="21" class="fil8" d="M20692 10069c0,0 33,43 98,43 52,0 92,-28 92,-73 0,-79 -127,-72 -127,-109 0,-14 15,-21 36,-21 13,0 30,5 30,16l0 12 52 0 0 -25c0,-38 -51,-49 -84,-49 -49,0 -92,22 -92,69 0,77 126,77 126,110 0,16 -14,24 -33,24 -40,0 -70,-35 -70,-35l-28 38z"/>
  <path id="22" class="fil8" d="M21036 9987c0,73 58,125 131,125 72,0 130,-52 130,-125 0,-72 -58,-124 -130,-124 -73,0 -131,52 -131,124zm60 0c0,-44 32,-74 71,-74 38,0 70,30 70,74 0,45 -32,74 -70,74 -39,0 -71,-29 -71,-74z"/>
  <path id="23" class="fil8" d="M21324 10069c0,0 33,43 98,43 52,0 92,-28 92,-73 0,-79 -127,-72 -127,-109 0,-14 15,-21 36,-21 13,0 30,5 30,16l0 12 52 0 0 -25c0,-38 -51,-49 -84,-49 -49,0 -92,22 -92,69 0,77 126,77 126,110 0,16 -14,24 -33,24 -40,0 -70,-35 -70,-35l-28 38z"/>
  <path id="24" class="fil8" d="M21669 10038c0,47 39,74 81,74 54,0 72,-42 72,-42l1 0c0,0 -1,4 -1,10 0,14 9,26 31,26l53 0 0 -50 -19 0c-7,0 -10,-3 -10,-10l0 -89c0,-53 -24,-94 -103,-94 -24,0 -87,5 -87,49l0 25 55 0 0 -13c0,-13 21,-15 32,-15 30,0 44,12 44,46l0 2 -8 0c-39,0 -141,6 -141,81zm60 -3c0,-33 49,-37 79,-37l11 0 0 5c0,29 -23,63 -55,63 -24,0 -35,-15 -35,-31zm-17 -196l44 0 24 -38 1 0 23 38 44 0 -43 -64 -50 0 -43 64z"/>
  <path id="25" class="fil8" d="M21953 10106l59 0 0 -109c0,-11 1,-22 5,-32 8,-28 32,-48 63,-48 30,0 38,20 38,48l0 109c0,23 9,32 31,32l57 0 0 -50 -19 0c-6,0 -10,-3 -10,-10l0 -93c0,-63 -30,-90 -83,-90 -48,0 -74,29 -84,49l-1 0c0,0 1,-5 1,-10l0 -7c0,-17 -10,-27 -31,-27l-55 0 0 51 19 0c6,0 10,3 10,10l0 177z"/>
  <path id="26" class="fil8" d="M22229 9981c0,65 39,120 107,120 32,0 52,-10 66,-30l1 0c0,0 -1,7 -1,12l0 11c0,43 -31,59 -67,59 -36,0 -65,-16 -65,-16l-19 47c23,12 55,20 85,20 62,0 125,-31 125,-112l0 -164c0,-6 4,-9 10,-9l19 0 0 -51 -55 0c-19,0 -26,12 -26,22 0,4 0,6 0,6l-1 0c0,0 -19,-33 -74,-33 -68,0 -105,53 -105,118zm119 71c-38,0 -59,-31 -59,-73 0,-40 20,-66 56,-66 32,0 59,15 59,69 0,53 -27,70 -56,70z"/>
  <path id="27" class="fil8" d="M22537 10021c0,65 31,91 82,91 41,0 71,-25 82,-50l1 0c0,0 0,5 0,11l0 7c0,16 10,26 31,26l54 0 0 -50 -18 0c-7,0 -10,-3 -10,-10l0 -178 -60 0 0 110c0,42 -23,80 -66,80 -30,0 -37,-20 -37,-49l0 -109c0,-22 -9,-32 -31,-32l-57 0 0 51 19 0c6,0 10,3 10,10l0 92z"/>
  <path id="28" class="fil8" d="M22834 10074c0,23 9,32 32,32l56 0 0 -50 -19 0c-6,0 -10,-3 -10,-10l0 -239c0,-22 -10,-32 -31,-32l-57 0 0 51 19 0c6,0 10,3 10,10l0 238z"/>
  <path id="29" class="fil8" d="M22947 9987c0,73 58,125 130,125 73,0 131,-52 131,-125 0,-72 -58,-124 -131,-124 -72,0 -130,52 -130,124zm60 0c0,-44 32,-74 70,-74 39,0 71,30 71,74 0,45 -32,74 -71,74 -38,0 -70,-29 -70,-74z"/>
  <path id="30" class="fil8" d="M23234 10069c0,0 34,43 99,43 52,0 91,-28 91,-73 0,-79 -126,-72 -126,-109 0,-14 15,-21 36,-21 13,0 29,5 29,16l0 12 53 0 0 -25c0,-38 -52,-49 -84,-49 -49,0 -92,22 -92,69 0,77 125,77 125,110 0,16 -14,24 -32,24 -40,0 -71,-35 -71,-35l-28 38z"/>
  <polygon class="fil4" points="25400,0 38100,0 38100,12700 25400,12700 "/>
  <g style="clip-path:url(#id1)">
   <g id="_2121451662640">
    <g>
     <path id="1" class="fil9" d="M26007 9012c583,0 1129,155 1600,425 -41,31 -71,78 -80,132 -448,-256 -967,-403 -1520,-403 -1693,0 -3066,1373 -3066,3067 0,1694 1373,3067 3066,3067 1694,0 3067,-1373 3067,-3067 0,-605 -175,-1168 -477,-1643 -17,-22 -22,-52 -12,-78 11,-26 34,-44 62,-48 28,-4 55,8 72,30 323,502 510,1098 510,1739 0,1779 -1443,3221 -3222,3221 -1779,0 -3221,-1442 -3221,-3221 0,-1779 1442,-3221 3221,-3221z"/>
     <path class="fil2" d="M27733 9395c116,0 210,94 210,209 0,116 -94,210 -210,210 -115,0 -209,-94 -209,-210 0,-115 94,-209 209,-209z"/>
    </g>
    <g>
     <path class="fil9" d="M37649 -3759c583,0 1129,155 1600,425 -42,32 -71,78 -80,132 -448,-256 -967,-402 -1520,-402 -1694,0 -3067,1373 -3067,3066 0,1694 1373,3067 3067,3067 1694,0 3067,-1373 3067,-3067 0,-604 -175,-1168 -477,-1643 -18,-22 -22,-51 -12,-77 10,-26 34,-45 62,-48 27,-4 55,7 72,29 322,502 509,1099 509,1739 0,1779 -1442,3222 -3221,3222 -1779,0 -3221,-1443 -3221,-3222 0,-1779 1442,-3221 3221,-3221z"/>
     <path class="fil2" d="M39375 -3376c116,0 209,94 209,210 0,115 -93,209 -209,209 -116,0 -209,-94 -209,-209 0,-116 93,-210 209,-210z"/>
    </g>
   </g>
  </g>
  <polygon class="fil3" points="25400,0 38100,0 38100,12700 25400,12700 "/>
  <polygon class="fil7" points="38100,0 50800,0 50800,12700 38100,12700 "/>
  <g style="clip-path:url(#id2)">
   <g id="_2121451660624">
    <g>
     <path id="1" class="fil1" d="M38707 9012c583,0 1129,155 1600,425 -41,31 -71,78 -80,132 -448,-256 -967,-403 -1520,-403 -1693,0 -3066,1373 -3066,3067 0,1694 1373,3067 3066,3067 1694,0 3067,-1373 3067,-3067 0,-605 -175,-1168 -477,-1643 -17,-22 -22,-52 -12,-78 11,-26 34,-44 62,-48 28,-4 55,8 72,30 323,502 510,1098 510,1739 0,1779 -1443,3221 -3222,3221 -1779,0 -3221,-1442 -3221,-3221 0,-1779 1442,-3221 3221,-3221z"/>
     <path class="fil9" d="M40433 9395c116,0 210,94 210,209 0,116 -94,210 -210,210 -115,0 -209,-94 -209,-210 0,-115 94,-209 209,-209z"/>
    </g>
    <g>
     <path class="fil1" d="M50349 -3759c583,0 1129,155 1600,425 -42,32 -71,78 -80,132 -448,-256 -967,-402 -1520,-402 -1694,0 -3067,1373 -3067,3066 0,1694 1373,3067 3067,3067 1694,0 3067,-1373 3067,-3067 0,-604 -175,-1168 -477,-1643 -18,-22 -22,-51 -12,-77 10,-26 34,-45 62,-48 27,-4 55,7 72,29 322,502 509,1099 509,1739 0,1779 -1442,3222 -3221,3222 -1779,0 -3221,-1443 -3221,-3222 0,-1779 1442,-3221 3221,-3221z"/>
     <path class="fil2" d="M52075 -3376c116,0 209,94 209,210 0,115 -93,209 -209,209 -116,0 -209,-94 -209,-209 0,-116 93,-210 209,-210z"/>
    </g>
   </g>
  </g>
  <polygon class="fil3" points="38100,0 50800,0 50800,12700 38100,12700 "/>
  <g id="_2121451658576">
   <path class="fil0" d="M31818 3385c1253,0 2324,777 2758,1875l0 0c15,34 32,79 50,136 2,8 5,16 8,23l-1 0c25,82 52,185 83,309 0,0 -61,6 -181,17 -22,-129 -47,-237 -74,-326 -383,-1089 -1422,-1870 -2643,-1870 -1237,0 -2287,802 -2658,1915l-171 0c377,-1205 1501,-2079 2829,-2079zm-2658 3851c371,1113 1421,1915 2658,1915 1221,0 2260,-781 2643,-1870l173 0c-391,1181 -1503,2034 -2816,2034 -1328,0 -2452,-874 -2829,-2079l171 0z"/>
   <path class="fil5" d="M26701 6942c0,0 193,222 535,222 357,0 561,-248 561,-510 0,-266 -193,-426 -406,-459l362 -453 0 -180 -857 0c-106,0 -137,47 -137,151l0 240 261 0 0 -96c0,-31 18,-48 49,-48l198 0c91,0 140,-7 140,-7l0 4c0,0 -52,40 -105,120l-266 357 58 145 111 0c168,0 297,91 297,230 0,138 -113,236 -269,236 -233,0 -386,-169 -386,-169l-146 217z"/>
   <path id="1" class="fil5" d="M28560 7164c311,0 517,-235 517,-528 0,-282 -193,-523 -503,-523 -114,0 -240,46 -293,115l-5 0c38,-222 171,-428 417,-428 120,0 222,49 222,49l85 -247c0,0 -125,-66 -324,-66 -488,0 -726,477 -726,896 0,466 282,732 610,732zm-310 -645c0,-96 117,-171 257,-171 189,0 289,131 289,288 0,149 -89,267 -238,267 -164,0 -308,-187 -308,-384z"/>
   <path id="2" class="fil5" d="M29814 7164c430,0 570,-364 570,-816 0,-453 -140,-812 -570,-812 -430,0 -570,359 -570,812 0,452 140,816 570,816zm0 -261c-215,0 -277,-245 -277,-555 0,-306 62,-548 277,-548 215,0 277,242 277,548 0,310 -62,555 -277,555z"/>
   <path id="3" class="fil10" d="M30564 6920c0,0 193,244 541,244 331,0 524,-213 524,-463 0,-517 -741,-464 -741,-733 0,-100 98,-168 231,-168 104,0 208,49 208,122l0 71 262 0 0 -147c0,-224 -284,-310 -468,-310 -304,0 -526,188 -526,443 0,491 741,469 741,737 0,122 -106,187 -226,187 -220,0 -382,-187 -382,-187l-164 204z"/>
   <path id="4" class="fil10" d="M31793 6572c0,348 275,592 619,592 347,0 622,-244 622,-592 0,-346 -275,-593 -622,-593 -344,0 -619,247 -619,593zm284 0c0,-209 153,-353 335,-353 185,0 338,144 338,353 0,211 -153,353 -338,353 -182,0 -335,-142 -335,-353z"/>
   <path id="5" class="fil10" d="M33176 6572c0,328 239,592 612,592 309,0 477,-204 477,-204l-117 -195c0,0 -142,153 -336,153 -181,0 -352,-118 -352,-348 0,-204 139,-353 335,-353 69,0 162,26 162,89l0 62 248 0 0 -133c0,-196 -264,-256 -410,-256 -389,0 -619,273 -619,593z"/>
   <path id="6" class="fil10" d="M34505 5822l244 0 0 -260 -244 0 0 260zm-14 1165c0,106 45,151 149,151l269 0 0 -238 -89 0c-31,0 -49,-17 -49,-49l0 -694c0,-104 -44,-151 -149,-151l-268 0 0 240 89 0c31,0 48,15 48,49l0 692z"/>
   <path id="7" class="fil10" d="M35035 6812c0,226 184,352 386,352 255,0 342,-199 342,-199l4 0c0,0 -2,20 -2,48 0,67 40,125 144,125l253 0 0 -238 -88 0c-32,0 -49,-17 -49,-49l0 -421c0,-253 -111,-451 -488,-451 -118,0 -415,23 -415,233l0 120 261 0 0 -60c0,-62 100,-75 151,-75 145,0 209,60 209,222l0 9 -36 0c-184,0 -672,29 -672,384zm284 -14c0,-157 233,-177 380,-177l48 0 0 26c0,138 -106,298 -257,298 -115,0 -171,-71 -171,-147z"/>
   <path id="8" class="fil10" d="M36382 6987c0,106 44,151 151,151l266 0 0 -238 -86 0c-31,0 -49,-17 -49,-49l0 -1138c0,-104 -47,-151 -151,-151l-269 0 0 240 89 0c31,0 49,15 49,49l0 1136z"/>
   <circle class="fil7" cx="34628" cy="5704" r="201"/>
  </g>
  <g id="_2121451659472">
   <path class="fil4" d="M44518 3385c1253,0 2324,777 2758,1875l0 0c15,34 32,79 50,136 2,8 5,16 8,23l-1 0c25,82 52,185 83,309 0,0 -61,6 -181,17 -22,-129 -47,-237 -74,-326 -383,-1089 -1422,-1870 -2643,-1870 -1237,0 -2287,802 -2658,1915l-171 0c377,-1205 1501,-2079 2829,-2079zm-2658 3851c371,1113 1421,1915 2658,1915 1221,0 2260,-781 2643,-1870l173 0c-391,1181 -1503,2034 -2816,2034 -1328,0 -2452,-874 -2829,-2079l171 0z"/>
   <path class="fil10" d="M39401 6942c0,0 193,222 535,222 357,0 561,-248 561,-510 0,-266 -193,-426 -406,-459l362 -453 0 -180 -857 0c-106,0 -137,47 -137,151l0 240 261 0 0 -96c0,-31 18,-48 49,-48l198 0c91,0 140,-7 140,-7l0 4c0,0 -52,40 -105,120l-266 357 58 145 111 0c168,0 297,91 297,230 0,138 -113,236 -269,236 -233,0 -386,-169 -386,-169l-146 217z"/>
   <path id="1" class="fil10" d="M41260 7164c311,0 517,-235 517,-528 0,-282 -193,-523 -503,-523 -114,0 -240,46 -293,115l-5 0c38,-222 171,-428 417,-428 120,0 222,49 222,49l85 -247c0,0 -125,-66 -324,-66 -488,0 -726,477 -726,896 0,466 282,732 610,732zm-310 -645c0,-96 117,-171 257,-171 189,0 289,131 289,288 0,149 -89,267 -238,267 -164,0 -308,-187 -308,-384z"/>
   <path id="2" class="fil10" d="M42514 7164c430,0 570,-364 570,-816 0,-453 -140,-812 -570,-812 -430,0 -570,359 -570,812 0,452 140,816 570,816zm0 -261c-215,0 -277,-245 -277,-555 0,-306 62,-548 277,-548 215,0 277,242 277,548 0,310 -62,555 -277,555z"/>
   <path id="3" class="fil6" d="M43264 6920c0,0 193,244 541,244 331,0 524,-213 524,-463 0,-517 -741,-464 -741,-733 0,-100 98,-168 231,-168 104,0 208,49 208,122l0 71 262 0 0 -147c0,-224 -284,-310 -468,-310 -304,0 -526,188 -526,443 0,491 741,469 741,737 0,122 -106,187 -226,187 -220,0 -382,-187 -382,-187l-164 204z"/>
   <path id="4" class="fil6" d="M44493 6572c0,348 275,592 619,592 347,0 622,-244 622,-592 0,-346 -275,-593 -622,-593 -344,0 -619,247 -619,593zm284 0c0,-209 153,-353 335,-353 185,0 338,144 338,353 0,211 -153,353 -338,353 -182,0 -335,-142 -335,-353z"/>
   <path id="5" class="fil6" d="M45876 6572c0,328 239,592 612,592 309,0 477,-204 477,-204l-117 -195c0,0 -142,153 -336,153 -181,0 -352,-118 -352,-348 0,-204 139,-353 335,-353 69,0 162,26 162,89l0 62 248 0 0 -133c0,-196 -264,-256 -410,-256 -389,0 -619,273 -619,593z"/>
   <path id="6" class="fil6" d="M47205 5822l244 0 0 -260 -244 0 0 260zm-14 1165c0,106 45,151 149,151l269 0 0 -238 -89 0c-31,0 -49,-17 -49,-49l0 -694c0,-104 -44,-151 -149,-151l-268 0 0 240 89 0c31,0 48,15 48,49l0 692z"/>
   <path id="7" class="fil6" d="M47735 6812c0,226 184,352 386,352 255,0 342,-199 342,-199l4 0c0,0 -2,20 -2,48 0,67 40,125 144,125l253 0 0 -238 -88 0c-32,0 -49,-17 -49,-49l0 -421c0,-253 -111,-451 -488,-451 -118,0 -415,23 -415,233l0 120 261 0 0 -60c0,-62 100,-75 151,-75 145,0 209,60 209,222l0 9 -36 0c-184,0 -672,29 -672,384zm284 -14c0,-157 233,-177 380,-177l48 0 0 26c0,138 -106,298 -257,298 -115,0 -171,-71 -171,-147z"/>
   <path id="8" class="fil6" d="M49082 6987c0,106 44,151 151,151l266 0 0 -238 -86 0c-31,0 -49,-17 -49,-49l0 -1138c0,-104 -47,-151 -151,-151l-269 0 0 240 89 0c31,0 49,15 49,49l0 1136z"/>
   <circle class="fil0" cx="47328" cy="5704" r="201"/>
  </g>
  <path class="fil11" d="M27376 9938c0,98 69,174 170,174 85,0 133,-57 133,-57l-32 -44c0,0 -38,44 -100,44 -61,0 -108,-52 -108,-117 0,-69 47,-111 106,-111 29,0 68,11 68,35l0 19 56 0 0 -37c0,-57 -83,-74 -126,-74 -96,0 -167,72 -167,168z"/>
  <path id="1" class="fil11" d="M27731 10106l58 0 0 -94c0,-14 2,-27 6,-39 10,-35 39,-50 64,-50 9,0 15,1 15,1l0 -58c0,0 -6,-1 -11,-1 -36,0 -65,27 -75,61l-1 0c0,0 1,-6 1,-15l0 -14c0,-20 -11,-29 -32,-29l-54 0 0 51 18 0c7,0 11,3 11,10l0 177z"/>
  <path id="2" class="fil11" d="M27927 9830l52 0 0 -55 -52 0 0 55zm-2 244c0,23 9,32 31,32l56 0 0 -50 -18 0c-7,0 -11,-3 -11,-10l0 -146c0,-22 -9,-32 -31,-32l-56 0 0 51 18 0c7,0 11,3 11,10l0 145z"/>
  <path id="3" class="fil11" d="M28039 10038c0,47 38,74 81,74 53,0 72,-42 72,-42l1 0c0,0 -1,4 -1,10 0,14 8,26 30,26l53 0 0 -50 -18 0c-7,0 -10,-3 -10,-10l0 -89c0,-53 -24,-94 -103,-94 -25,0 -87,5 -87,49l0 25 55 0 0 -13c0,-13 21,-15 32,-15 30,0 43,12 43,46l0 2 -7 0c-39,0 -141,6 -141,81zm59 -3c0,-33 49,-37 80,-37l10 0 0 5c0,29 -22,63 -54,63 -24,0 -36,-15 -36,-31z"/>
  <path id="4" class="fil11" d="M28323 10106l59 0 0 -109c0,-11 1,-22 4,-32 9,-28 33,-48 64,-48 30,0 38,20 38,48l0 109c0,23 9,32 31,32l57 0 0 -50 -19 0c-7,0 -10,-3 -10,-10l0 -93c0,-63 -31,-90 -83,-90 -48,0 -74,29 -84,49l-1 0c0,0 1,-5 1,-10l0 -7c0,-17 -10,-27 -31,-27l-55 0 0 51 19 0c6,0 10,3 10,10l0 177z"/>
  <path id="5" class="fil11" d="M28599 9987c0,74 41,125 106,125 54,0 74,-39 74,-39l1 0c0,0 0,4 0,9 0,14 8,24 29,24l55 0 0 -50 -19 0c-6,0 -10,-3 -10,-10l0 -239c0,-22 -10,-32 -32,-32l-56 0 0 51 19 0c6,0 10,3 10,10l0 42c0,8 0,14 0,14l0 0c0,0 -17,-29 -69,-29 -63,0 -108,49 -108,124zm119 75c-35,0 -59,-29 -59,-75 0,-47 27,-73 60,-73 39,0 58,36 58,73 0,53 -29,75 -59,75z"/>
  <path id="6" class="fil11" d="M28889 9987c0,73 58,125 130,125 72,0 130,-52 130,-125 0,-72 -58,-124 -130,-124 -72,0 -130,52 -130,124zm59 0c0,-44 33,-74 71,-74 38,0 71,30 71,74 0,45 -33,74 -71,74 -38,0 -71,-29 -71,-74z"/>
  <path id="7" class="fil11" d="M29303 9987c0,69 50,125 128,125 65,0 100,-43 100,-43l-24 -41c0,0 -30,32 -71,32 -38,0 -74,-25 -74,-73 0,-43 30,-74 71,-74 14,0 34,5 34,18l0 13 52 0 0 -28c0,-41 -56,-53 -86,-53 -82,0 -130,57 -130,124z"/>
  <path id="8" class="fil11" d="M29553 9987c0,73 58,125 130,125 73,0 131,-52 131,-125 0,-72 -58,-124 -131,-124 -72,0 -130,52 -130,124zm60 0c0,-44 32,-74 70,-74 39,0 71,30 71,74 0,45 -32,74 -71,74 -38,0 -70,-29 -70,-74z"/>
  <path id="9" class="fil11" d="M29867 10106l59 0 0 -109c0,-11 2,-22 5,-32 8,-28 32,-48 64,-48 30,0 37,20 37,48l0 109c0,23 9,32 32,32l56 0 0 -50 -19 0c-6,0 -10,-3 -10,-10l0 -93c0,-63 -30,-90 -83,-90 -48,0 -73,29 -84,49l-1 0c0,0 1,-5 1,-10l0 -7c0,-17 -10,-27 -31,-27l-54 0 0 51 18 0c7,0 10,3 10,10l0 177z"/>
  <path id="10" class="fil11" d="M30143 9987c0,68 49,125 128,125 59,0 96,-36 96,-36l-25 -41c0,0 -29,26 -67,26 -36,0 -66,-21 -71,-63l164 0c0,0 1,-15 1,-22 0,-63 -37,-113 -105,-113 -71,0 -121,51 -121,124zm63 -30c6,-30 28,-48 58,-48 24,0 44,19 45,48l-103 0z"/>
  <path id="11" class="fil11" d="M30393 10106l66 0 41 -66c3,-5 7,-13 7,-13l1 0c0,0 3,8 6,13l42 66 65 0 -77 -120 39 -59c5,-7 9,-8 18,-8l17 0 0 -51 -41 0c-20,0 -28,5 -38,23l-24 39c-3,6 -7,15 -7,15l-1 0c0,0 -4,-9 -8,-15l-23 -39c-11,-18 -19,-23 -39,-23l-41 0 0 51 17 0c10,0 14,1 18,8l39 59 -77 120z"/>
  <path id="12" class="fil11" d="M30642 9987c0,73 57,125 130,125 72,0 130,-52 130,-125 0,-72 -58,-124 -130,-124 -73,0 -130,52 -130,124zm59 0c0,-44 32,-74 71,-74 38,0 70,30 70,74 0,45 -32,74 -70,74 -39,0 -71,-29 -71,-74zm-14 -148l37 0c0,-16 6,-29 19,-29 20,0 28,30 60,30 35,1 53,-21 53,-63l-37 0c0,15 -6,29 -19,29 -20,0 -28,-31 -60,-31 -35,0 -53,22 -53,64l0 0z"/>
  <path id="13" class="fil11" d="M30932 9987c0,68 49,125 128,125 59,0 95,-36 95,-36l-25 -41c0,0 -28,26 -66,26 -36,0 -67,-21 -72,-63l164 0c0,0 2,-15 2,-22 0,-63 -37,-113 -105,-113 -72,0 -121,51 -121,124zm62 -30c7,-30 28,-48 59,-48 24,0 43,19 44,48l-103 0z"/>
  <path id="14" class="fil11" d="M31188 10069c0,0 34,43 99,43 52,0 91,-28 91,-73 0,-79 -126,-72 -126,-109 0,-14 14,-21 35,-21 14,0 30,5 30,16l0 12 52 0 0 -25c0,-38 -51,-49 -83,-49 -49,0 -92,22 -92,69 0,77 125,77 125,110 0,16 -14,24 -32,24 -41,0 -71,-35 -71,-35l-28 38z"/>
  <path id="15" class="fil11" d="M31533 9987c0,68 49,125 128,125 59,0 95,-36 95,-36l-24 -41c0,0 -29,26 -67,26 -36,0 -67,-21 -71,-63l164 0c0,0 1,-15 1,-22 0,-63 -37,-113 -105,-113 -72,0 -121,51 -121,124zm63 -30c6,-30 27,-48 58,-48 24,0 44,19 45,48l-103 0z"/>
  <path id="16" class="fil11" d="M31816 10106l59 0 0 -104c0,-11 2,-21 4,-30 7,-30 27,-55 57,-55 29,0 32,22 32,47l0 142 60 0 0 -104c0,-11 0,-21 3,-31 7,-29 28,-54 57,-54 28,0 33,20 33,47l0 110c0,23 9,32 31,32l56 0 0 -50 -18 0c-6,0 -10,-3 -10,-10l0 -93c0,-62 -29,-90 -78,-90 -38,0 -68,23 -81,49l-1 0c-10,-32 -33,-49 -69,-49 -38,0 -66,26 -77,49l-1 0c0,0 0,-5 0,-10l0 -7c0,-17 -10,-27 -31,-27l-54 0 0 51 18 0c7,0 10,3 10,10l0 177z"/>
  <path id="17" class="fil11" d="M32380 10019c0,80 66,89 99,89 11,0 18,-1 18,-1l0 -52c0,0 -4,1 -10,1 -17,0 -47,-5 -47,-44l0 -96 54 0 0 -48 -54 0 0 -64 -58 0 0 64 -32 0 0 48 30 0 0 103z"/>
  <path id="18" class="fil11" d="M32524 9987c0,73 58,125 130,125 73,0 131,-52 131,-125 0,-72 -58,-124 -131,-124 -72,0 -130,52 -130,124zm60 0c0,-44 32,-74 70,-74 39,0 71,30 71,74 0,45 -32,74 -71,74 -38,0 -70,-29 -70,-74z"/>
  <path id="19" class="fil11" d="M32815 9987c0,74 41,125 105,125 55,0 75,-39 75,-39l0 0c0,0 0,4 0,9 0,14 8,24 30,24l54 0 0 -50 -18 0c-6,0 -10,-3 -10,-10l0 -239c0,-22 -10,-32 -32,-32l-56 0 0 51 19 0c6,0 10,3 10,10l0 42c0,8 0,14 0,14l-1 0c0,0 -16,-29 -68,-29 -63,0 -108,49 -108,124zm119 75c-35,0 -59,-29 -59,-75 0,-47 27,-73 59,-73 40,0 59,36 59,73 0,53 -29,75 -59,75z"/>
  <path id="20" class="fil11" d="M33105 9987c0,73 57,125 130,125 72,0 130,-52 130,-125 0,-72 -58,-124 -130,-124 -73,0 -130,52 -130,124zm59 0c0,-44 32,-74 71,-74 38,0 70,30 70,74 0,45 -32,74 -70,74 -39,0 -71,-29 -71,-74z"/>
  <path id="21" class="fil11" d="M33392 10069c0,0 33,43 98,43 52,0 92,-28 92,-73 0,-79 -127,-72 -127,-109 0,-14 15,-21 36,-21 13,0 30,5 30,16l0 12 52 0 0 -25c0,-38 -51,-49 -84,-49 -49,0 -92,22 -92,69 0,77 126,77 126,110 0,16 -14,24 -33,24 -40,0 -70,-35 -70,-35l-28 38z"/>
  <path id="22" class="fil11" d="M33736 9987c0,73 58,125 131,125 72,0 130,-52 130,-125 0,-72 -58,-124 -130,-124 -73,0 -131,52 -131,124zm60 0c0,-44 32,-74 71,-74 38,0 70,30 70,74 0,45 -32,74 -70,74 -39,0 -71,-29 -71,-74z"/>
  <path id="23" class="fil11" d="M34024 10069c0,0 33,43 98,43 52,0 92,-28 92,-73 0,-79 -127,-72 -127,-109 0,-14 15,-21 36,-21 13,0 30,5 30,16l0 12 52 0 0 -25c0,-38 -51,-49 -84,-49 -49,0 -92,22 -92,69 0,77 126,77 126,110 0,16 -14,24 -33,24 -40,0 -70,-35 -70,-35l-28 38z"/>
  <path id="24" class="fil11" d="M34369 10038c0,47 39,74 81,74 54,0 72,-42 72,-42l1 0c0,0 -1,4 -1,10 0,14 9,26 31,26l53 0 0 -50 -19 0c-7,0 -10,-3 -10,-10l0 -89c0,-53 -24,-94 -103,-94 -24,0 -87,5 -87,49l0 25 55 0 0 -13c0,-13 21,-15 32,-15 30,0 44,12 44,46l0 2 -8 0c-39,0 -141,6 -141,81zm60 -3c0,-33 49,-37 79,-37l11 0 0 5c0,29 -23,63 -55,63 -24,0 -35,-15 -35,-31zm-17 -196l44 0 24 -38 1 0 23 38 44 0 -43 -64 -50 0 -43 64z"/>
  <path id="25" class="fil11" d="M34653 10106l59 0 0 -109c0,-11 1,-22 5,-32 8,-28 32,-48 63,-48 30,0 38,20 38,48l0 109c0,23 9,32 31,32l57 0 0 -50 -19 0c-6,0 -10,-3 -10,-10l0 -93c0,-63 -30,-90 -83,-90 -48,0 -74,29 -84,49l-1 0c0,0 1,-5 1,-10l0 -7c0,-17 -10,-27 -31,-27l-55 0 0 51 19 0c6,0 10,3 10,10l0 177z"/>
  <path id="26" class="fil11" d="M34929 9981c0,65 39,120 107,120 32,0 52,-10 66,-30l1 0c0,0 -1,7 -1,12l0 11c0,43 -31,59 -67,59 -36,0 -65,-16 -65,-16l-19 47c23,12 55,20 85,20 62,0 125,-31 125,-112l0 -164c0,-6 4,-9 10,-9l19 0 0 -51 -55 0c-19,0 -26,12 -26,22 0,4 0,6 0,6l-1 0c0,0 -19,-33 -74,-33 -68,0 -105,53 -105,118zm119 71c-38,0 -59,-31 -59,-73 0,-40 20,-66 56,-66 32,0 59,15 59,69 0,53 -27,70 -56,70z"/>
  <path id="27" class="fil11" d="M35237 10021c0,65 31,91 82,91 41,0 71,-25 82,-50l1 0c0,0 0,5 0,11l0 7c0,16 10,26 31,26l54 0 0 -50 -18 0c-7,0 -10,-3 -10,-10l0 -178 -60 0 0 110c0,42 -23,80 -66,80 -30,0 -37,-20 -37,-49l0 -109c0,-22 -9,-32 -31,-32l-57 0 0 51 19 0c6,0 10,3 10,10l0 92z"/>
  <path id="28" class="fil11" d="M35534 10074c0,23 9,32 32,32l56 0 0 -50 -19 0c-6,0 -10,-3 -10,-10l0 -239c0,-22 -10,-32 -31,-32l-57 0 0 51 19 0c6,0 10,3 10,10l0 238z"/>
  <path id="29" class="fil11" d="M35647 9987c0,73 58,125 130,125 73,0 131,-52 131,-125 0,-72 -58,-124 -131,-124 -72,0 -130,52 -130,124zm60 0c0,-44 32,-74 70,-74 39,0 71,30 71,74 0,45 -32,74 -71,74 -38,0 -70,-29 -70,-74z"/>
  <path id="30" class="fil11" d="M35934 10069c0,0 34,43 99,43 52,0 91,-28 91,-73 0,-79 -126,-72 -126,-109 0,-14 15,-21 36,-21 13,0 29,5 29,16l0 12 53 0 0 -25c0,-38 -52,-49 -84,-49 -49,0 -92,22 -92,69 0,77 125,77 125,110 0,16 -14,24 -32,24 -40,0 -71,-35 -71,-35l-28 38z"/>
  <path class="fil6" d="M40076 9938c0,98 69,174 170,174 85,0 133,-57 133,-57l-32 -44c0,0 -38,44 -100,44 -61,0 -108,-52 -108,-117 0,-69 47,-111 106,-111 29,0 68,11 68,35l0 19 56 0 0 -37c0,-57 -83,-74 -126,-74 -96,0 -167,72 -167,168z"/>
  <path id="1" class="fil6" d="M40431 10106l58 0 0 -94c0,-14 2,-27 6,-39 10,-35 39,-50 64,-50 9,0 15,1 15,1l0 -58c0,0 -6,-1 -11,-1 -36,0 -65,27 -75,61l-1 0c0,0 1,-6 1,-15l0 -14c0,-20 -11,-29 -32,-29l-54 0 0 51 18 0c7,0 11,3 11,10l0 177z"/>
  <path id="2" class="fil6" d="M40627 9830l52 0 0 -55 -52 0 0 55zm-2 244c0,23 9,32 31,32l56 0 0 -50 -18 0c-7,0 -11,-3 -11,-10l0 -146c0,-22 -9,-32 -31,-32l-56 0 0 51 18 0c7,0 11,3 11,10l0 145z"/>
  <path id="3" class="fil6" d="M40739 10038c0,47 38,74 81,74 53,0 72,-42 72,-42l1 0c0,0 -1,4 -1,10 0,14 8,26 30,26l53 0 0 -50 -18 0c-7,0 -10,-3 -10,-10l0 -89c0,-53 -24,-94 -103,-94 -25,0 -87,5 -87,49l0 25 55 0 0 -13c0,-13 21,-15 32,-15 30,0 43,12 43,46l0 2 -7 0c-39,0 -141,6 -141,81zm59 -3c0,-33 49,-37 80,-37l10 0 0 5c0,29 -22,63 -54,63 -24,0 -36,-15 -36,-31z"/>
  <path id="4" class="fil6" d="M41023 10106l59 0 0 -109c0,-11 1,-22 4,-32 9,-28 33,-48 64,-48 30,0 38,20 38,48l0 109c0,23 9,32 31,32l57 0 0 -50 -19 0c-7,0 -10,-3 -10,-10l0 -93c0,-63 -31,-90 -83,-90 -48,0 -74,29 -84,49l-1 0c0,0 1,-5 1,-10l0 -7c0,-17 -10,-27 -31,-27l-55 0 0 51 19 0c6,0 10,3 10,10l0 177z"/>
  <path id="5" class="fil6" d="M41299 9987c0,74 41,125 106,125 54,0 74,-39 74,-39l1 0c0,0 0,4 0,9 0,14 8,24 29,24l55 0 0 -50 -19 0c-6,0 -10,-3 -10,-10l0 -239c0,-22 -10,-32 -32,-32l-56 0 0 51 19 0c6,0 10,3 10,10l0 42c0,8 0,14 0,14l0 0c0,0 -17,-29 -69,-29 -63,0 -108,49 -108,124zm119 75c-35,0 -59,-29 -59,-75 0,-47 27,-73 60,-73 39,0 58,36 58,73 0,53 -29,75 -59,75z"/>
  <path id="6" class="fil6" d="M41589 9987c0,73 58,125 130,125 72,0 130,-52 130,-125 0,-72 -58,-124 -130,-124 -72,0 -130,52 -130,124zm59 0c0,-44 33,-74 71,-74 38,0 71,30 71,74 0,45 -33,74 -71,74 -38,0 -71,-29 -71,-74z"/>
  <path id="7" class="fil6" d="M42003 9987c0,69 50,125 128,125 65,0 100,-43 100,-43l-24 -41c0,0 -30,32 -71,32 -38,0 -74,-25 -74,-73 0,-43 30,-74 71,-74 14,0 34,5 34,18l0 13 52 0 0 -28c0,-41 -56,-53 -86,-53 -82,0 -130,57 -130,124z"/>
  <path id="8" class="fil6" d="M42253 9987c0,73 58,125 130,125 73,0 131,-52 131,-125 0,-72 -58,-124 -131,-124 -72,0 -130,52 -130,124zm60 0c0,-44 32,-74 70,-74 39,0 71,30 71,74 0,45 -32,74 -71,74 -38,0 -70,-29 -70,-74z"/>
  <path id="9" class="fil6" d="M42567 10106l59 0 0 -109c0,-11 2,-22 5,-32 8,-28 32,-48 64,-48 30,0 37,20 37,48l0 109c0,23 9,32 32,32l56 0 0 -50 -19 0c-6,0 -10,-3 -10,-10l0 -93c0,-63 -30,-90 -83,-90 -48,0 -73,29 -84,49l-1 0c0,0 1,-5 1,-10l0 -7c0,-17 -10,-27 -31,-27l-54 0 0 51 18 0c7,0 10,3 10,10l0 177z"/>
  <path id="10" class="fil6" d="M42843 9987c0,68 49,125 128,125 59,0 96,-36 96,-36l-25 -41c0,0 -29,26 -67,26 -36,0 -66,-21 -71,-63l164 0c0,0 1,-15 1,-22 0,-63 -37,-113 -105,-113 -71,0 -121,51 -121,124zm63 -30c6,-30 28,-48 58,-48 24,0 44,19 45,48l-103 0z"/>
  <path id="11" class="fil6" d="M43093 10106l66 0 41 -66c3,-5 7,-13 7,-13l1 0c0,0 3,8 6,13l42 66 65 0 -77 -120 39 -59c5,-7 9,-8 18,-8l17 0 0 -51 -41 0c-20,0 -28,5 -38,23l-24 39c-3,6 -7,15 -7,15l-1 0c0,0 -4,-9 -8,-15l-23 -39c-11,-18 -19,-23 -39,-23l-41 0 0 51 17 0c10,0 14,1 18,8l39 59 -77 120z"/>
  <path id="12" class="fil6" d="M43342 9987c0,73 57,125 130,125 72,0 130,-52 130,-125 0,-72 -58,-124 -130,-124 -73,0 -130,52 -130,124zm59 0c0,-44 32,-74 71,-74 38,0 70,30 70,74 0,45 -32,74 -70,74 -39,0 -71,-29 -71,-74zm-14 -148l37 0c0,-16 6,-29 19,-29 20,0 28,30 60,30 35,1 53,-21 53,-63l-37 0c0,15 -6,29 -19,29 -20,0 -28,-31 -60,-31 -35,0 -53,22 -53,64l0 0z"/>
  <path id="13" class="fil6" d="M43632 9987c0,68 49,125 128,125 59,0 95,-36 95,-36l-25 -41c0,0 -28,26 -66,26 -36,0 -67,-21 -72,-63l164 0c0,0 2,-15 2,-22 0,-63 -37,-113 -105,-113 -72,0 -121,51 -121,124zm62 -30c7,-30 28,-48 59,-48 24,0 43,19 44,48l-103 0z"/>
  <path id="14" class="fil6" d="M43888 10069c0,0 34,43 99,43 52,0 91,-28 91,-73 0,-79 -126,-72 -126,-109 0,-14 14,-21 35,-21 14,0 30,5 30,16l0 12 52 0 0 -25c0,-38 -51,-49 -83,-49 -49,0 -92,22 -92,69 0,77 125,77 125,110 0,16 -14,24 -32,24 -41,0 -71,-35 -71,-35l-28 38z"/>
  <path id="15" class="fil6" d="M44233 9987c0,68 49,125 128,125 59,0 95,-36 95,-36l-24 -41c0,0 -29,26 -67,26 -36,0 -67,-21 -71,-63l164 0c0,0 1,-15 1,-22 0,-63 -37,-113 -105,-113 -72,0 -121,51 -121,124zm63 -30c6,-30 27,-48 58,-48 24,0 44,19 45,48l-103 0z"/>
  <path id="16" class="fil6" d="M44516 10106l59 0 0 -104c0,-11 2,-21 4,-30 7,-30 27,-55 57,-55 29,0 32,22 32,47l0 142 60 0 0 -104c0,-11 0,-21 3,-31 7,-29 28,-54 57,-54 28,0 33,20 33,47l0 110c0,23 9,32 31,32l56 0 0 -50 -18 0c-6,0 -10,-3 -10,-10l0 -93c0,-62 -29,-90 -78,-90 -38,0 -68,23 -81,49l-1 0c-10,-32 -33,-49 -69,-49 -38,0 -66,26 -77,49l-1 0c0,0 0,-5 0,-10l0 -7c0,-17 -10,-27 -31,-27l-54 0 0 51 18 0c7,0 10,3 10,10l0 177z"/>
  <path id="17" class="fil6" d="M45080 10019c0,80 66,89 99,89 11,0 18,-1 18,-1l0 -52c0,0 -4,1 -10,1 -17,0 -47,-5 -47,-44l0 -96 54 0 0 -48 -54 0 0 -64 -58 0 0 64 -32 0 0 48 30 0 0 103z"/>
  <path id="18" class="fil6" d="M45224 9987c0,73 58,125 130,125 73,0 131,-52 131,-125 0,-72 -58,-124 -131,-124 -72,0 -130,52 -130,124zm60 0c0,-44 32,-74 70,-74 39,0 71,30 71,74 0,45 -32,74 -71,74 -38,0 -70,-29 -70,-74z"/>
  <path id="19" class="fil6" d="M45515 9987c0,74 41,125 105,125 55,0 75,-39 75,-39l0 0c0,0 0,4 0,9 0,14 8,24 30,24l54 0 0 -50 -18 0c-6,0 -10,-3 -10,-10l0 -239c0,-22 -10,-32 -32,-32l-56 0 0 51 19 0c6,0 10,3 10,10l0 42c0,8 0,14 0,14l-1 0c0,0 -16,-29 -68,-29 -63,0 -108,49 -108,124zm119 75c-35,0 -59,-29 -59,-75 0,-47 27,-73 59,-73 40,0 59,36 59,73 0,53 -29,75 -59,75z"/>
  <path id="20" class="fil6" d="M45805 9987c0,73 57,125 130,125 72,0 130,-52 130,-125 0,-72 -58,-124 -130,-124 -73,0 -130,52 -130,124zm59 0c0,-44 32,-74 71,-74 38,0 70,30 70,74 0,45 -32,74 -70,74 -39,0 -71,-29 -71,-74z"/>
  <path id="21" class="fil6" d="M46092 10069c0,0 33,43 98,43 52,0 92,-28 92,-73 0,-79 -127,-72 -127,-109 0,-14 15,-21 36,-21 13,0 30,5 30,16l0 12 52 0 0 -25c0,-38 -51,-49 -84,-49 -49,0 -92,22 -92,69 0,77 126,77 126,110 0,16 -14,24 -33,24 -40,0 -70,-35 -70,-35l-28 38z"/>
  <path id="22" class="fil6" d="M46436 9987c0,73 58,125 131,125 72,0 130,-52 130,-125 0,-72 -58,-124 -130,-124 -73,0 -131,52 -131,124zm60 0c0,-44 32,-74 71,-74 38,0 70,30 70,74 0,45 -32,74 -70,74 -39,0 -71,-29 -71,-74z"/>
  <path id="23" class="fil6" d="M46724 10069c0,0 33,43 98,43 52,0 92,-28 92,-73 0,-79 -127,-72 -127,-109 0,-14 15,-21 36,-21 13,0 30,5 30,16l0 12 52 0 0 -25c0,-38 -51,-49 -84,-49 -49,0 -92,22 -92,69 0,77 126,77 126,110 0,16 -14,24 -33,24 -40,0 -70,-35 -70,-35l-28 38z"/>
  <path id="24" class="fil6" d="M47069 10038c0,47 39,74 81,74 54,0 72,-42 72,-42l1 0c0,0 -1,4 -1,10 0,14 9,26 31,26l53 0 0 -50 -19 0c-7,0 -10,-3 -10,-10l0 -89c0,-53 -24,-94 -103,-94 -24,0 -87,5 -87,49l0 25 55 0 0 -13c0,-13 21,-15 32,-15 30,0 44,12 44,46l0 2 -8 0c-39,0 -141,6 -141,81zm60 -3c0,-33 49,-37 79,-37l11 0 0 5c0,29 -23,63 -55,63 -24,0 -35,-15 -35,-31zm-17 -196l44 0 24 -38 1 0 23 38 44 0 -43 -64 -50 0 -43 64z"/>
  <path id="25" class="fil6" d="M47353 10106l59 0 0 -109c0,-11 1,-22 5,-32 8,-28 32,-48 63,-48 30,0 38,20 38,48l0 109c0,23 9,32 31,32l57 0 0 -50 -19 0c-6,0 -10,-3 -10,-10l0 -93c0,-63 -30,-90 -83,-90 -48,0 -74,29 -84,49l-1 0c0,0 1,-5 1,-10l0 -7c0,-17 -10,-27 -31,-27l-55 0 0 51 19 0c6,0 10,3 10,10l0 177z"/>
  <path id="26" class="fil6" d="M47629 9981c0,65 39,120 107,120 32,0 52,-10 66,-30l1 0c0,0 -1,7 -1,12l0 11c0,43 -31,59 -67,59 -36,0 -65,-16 -65,-16l-19 47c23,12 55,20 85,20 62,0 125,-31 125,-112l0 -164c0,-6 4,-9 10,-9l19 0 0 -51 -55 0c-19,0 -26,12 -26,22 0,4 0,6 0,6l-1 0c0,0 -19,-33 -74,-33 -68,0 -105,53 -105,118zm119 71c-38,0 -59,-31 -59,-73 0,-40 20,-66 56,-66 32,0 59,15 59,69 0,53 -27,70 -56,70z"/>
  <path id="27" class="fil6" d="M47937 10021c0,65 31,91 82,91 41,0 71,-25 82,-50l1 0c0,0 0,5 0,11l0 7c0,16 10,26 31,26l54 0 0 -50 -18 0c-7,0 -10,-3 -10,-10l0 -178 -60 0 0 110c0,42 -23,80 -66,80 -30,0 -37,-20 -37,-49l0 -109c0,-22 -9,-32 -31,-32l-57 0 0 51 19 0c6,0 10,3 10,10l0 92z"/>
  <path id="28" class="fil6" d="M48234 10074c0,23 9,32 32,32l56 0 0 -50 -19 0c-6,0 -10,-3 -10,-10l0 -239c0,-22 -10,-32 -31,-32l-57 0 0 51 19 0c6,0 10,3 10,10l0 238z"/>
  <path id="29" class="fil6" d="M48347 9987c0,73 58,125 130,125 73,0 131,-52 131,-125 0,-72 -58,-124 -131,-124 -72,0 -130,52 -130,124zm60 0c0,-44 32,-74 70,-74 39,0 71,30 71,74 0,45 -32,74 -71,74 -38,0 -70,-29 -70,-74z"/>
  <path id="30" class="fil6" d="M48634 10069c0,0 34,43 99,43 52,0 91,-28 91,-73 0,-79 -126,-72 -126,-109 0,-14 15,-21 36,-21 13,0 29,5 29,16l0 12 53 0 0 -25c0,-38 -52,-49 -84,-49 -49,0 -92,22 -92,69 0,77 125,77 125,110 0,16 -14,24 -32,24 -40,0 -71,-35 -71,-35l-28 38z"/>
  <g id="_2121451653776">
   <path class="fil4" d="M6418 3385c1253,0 2324,777 2758,1875l0 0c15,34 32,79 50,136 2,8 5,16 8,23l-1 0c25,82 52,185 83,309 0,0 -61,6 -181,17 -22,-129 -47,-237 -74,-326 -383,-1089 -1422,-1870 -2643,-1870 -1237,0 -2287,802 -2658,1915l-171 0c377,-1205 1501,-2079 2829,-2079zm-2658 3851c371,1113 1421,1915 2658,1915 1221,0 2260,-781 2643,-1870l173 0c-391,1181 -1503,2034 -2816,2034 -1328,0 -2452,-874 -2829,-2079l171 0z"/>
   <path class="fil5" d="M1301 6942c0,0 193,222 535,222 357,0 561,-248 561,-510 0,-266 -193,-426 -406,-459l362 -453 0 -180 -857 0c-106,0 -137,47 -137,151l0 240 261 0 0 -96c0,-31 18,-48 49,-48l198 0c91,0 140,-7 140,-7l0 4c0,0 -52,40 -105,120l-266 357 58 145 111 0c168,0 297,91 297,230 0,138 -113,236 -269,236 -233,0 -386,-169 -386,-169l-146 217z"/>
   <path id="1" class="fil5" d="M3160 7164c311,0 517,-235 517,-528 0,-282 -193,-523 -503,-523 -114,0 -240,46 -293,115l-5 0c38,-222 171,-428 417,-428 120,0 222,49 222,49l85 -247c0,0 -125,-66 -324,-66 -488,0 -726,477 -726,896 0,466 282,732 610,732zm-310 -645c0,-96 117,-171 257,-171 189,0 289,131 289,288 0,149 -89,267 -238,267 -164,0 -308,-187 -308,-384z"/>
   <path id="2" class="fil5" d="M4414 7164c430,0 570,-364 570,-816 0,-453 -140,-812 -570,-812 -430,0 -570,359 -570,812 0,452 140,816 570,816zm0 -261c-215,0 -277,-245 -277,-555 0,-306 62,-548 277,-548 215,0 277,242 277,548 0,310 -62,555 -277,555z"/>
   <path id="3" class="fil6" d="M5164 6920c0,0 193,244 541,244 331,0 524,-213 524,-463 0,-517 -741,-464 -741,-733 0,-100 98,-168 231,-168 104,0 208,49 208,122l0 71 262 0 0 -147c0,-224 -284,-310 -468,-310 -304,0 -526,188 -526,443 0,491 741,469 741,737 0,122 -106,187 -226,187 -220,0 -382,-187 -382,-187l-164 204z"/>
   <path id="4" class="fil6" d="M6393 6572c0,348 275,592 619,592 347,0 622,-244 622,-592 0,-346 -275,-593 -622,-593 -344,0 -619,247 -619,593zm284 0c0,-209 153,-353 335,-353 185,0 338,144 338,353 0,211 -153,353 -338,353 -182,0 -335,-142 -335,-353z"/>
   <path id="5" class="fil6" d="M7776 6572c0,328 239,592 612,592 309,0 477,-204 477,-204l-117 -195c0,0 -142,153 -336,153 -181,0 -352,-118 -352,-348 0,-204 139,-353 335,-353 69,0 162,26 162,89l0 62 248 0 0 -133c0,-196 -264,-256 -410,-256 -389,0 -619,273 -619,593z"/>
   <path id="6" class="fil6" d="M9105 5822l244 0 0 -260 -244 0 0 260zm-14 1165c0,106 45,151 149,151l269 0 0 -238 -89 0c-31,0 -49,-17 -49,-49l0 -694c0,-104 -44,-151 -149,-151l-268 0 0 240 89 0c31,0 48,15 48,49l0 692z"/>
   <path id="7" class="fil6" d="M9635 6812c0,226 184,352 386,352 255,0 342,-199 342,-199l4 0c0,0 -2,20 -2,48 0,67 40,125 144,125l253 0 0 -238 -88 0c-32,0 -49,-17 -49,-49l0 -421c0,-253 -111,-451 -488,-451 -118,0 -415,23 -415,233l0 120 261 0 0 -60c0,-62 100,-75 151,-75 145,0 209,60 209,222l0 9 -36 0c-184,0 -672,29 -672,384zm284 -14c0,-157 233,-177 380,-177l48 0 0 26c0,138 -106,298 -257,298 -115,0 -171,-71 -171,-147z"/>
   <path id="8" class="fil6" d="M10982 6987c0,106 44,151 151,151l266 0 0 -238 -86 0c-31,0 -49,-17 -49,-49l0 -1138c0,-104 -47,-151 -151,-151l-269 0 0 240 89 0c31,0 49,15 49,49l0 1136z"/>
   <circle class="fil7" cx="9228" cy="5704" r="201"/>
  </g>
 </g>
</svg>
